<?xml version="1.0" encoding="UTF-8" standalone="no"?>
<svg
   xmlns:dc="http://purl.org/dc/elements/1.1/"
   xmlns:cc="http://creativecommons.org/ns#"
   xmlns:rdf="http://www.w3.org/1999/02/22-rdf-syntax-ns#"
   xmlns:svg="http://www.w3.org/2000/svg"
   xmlns="http://www.w3.org/2000/svg"
   viewBox="0 0 58.533333 80.386665"
   height="80.386665"
   width="58.533333"
   xml:space="preserve"
   id="svg2"
   version="1.1"><g
     transform="matrix(1.3333333,0,0,-1.3333333,0,80.386667)"
     id="g10"><g
       transform="scale(0.1)"
       id="g12"><path
         id="path14"
         style="fill:#fff1e0;fill-opacity:1;fill-rule:nonzero;stroke:none"
         d="M 83.9258,31.6484 H 33.7695 V 128.34 c 0,1.914 -1.5234,3.437 -3.4375,3.437 H 3.63281 c -1.90234,0 -3.429685,-1.523 -3.429685,-3.437 V 5.33203 c 0,-1.90625 1.527345,-3.42969 3.429685,-3.42969 H 83.9258 c 1.914,0 3.4375,1.52344 3.4375,3.42969 V 28.2227 c 0,1.914 -1.5235,3.4257 -3.4375,3.4257" /><path
         id="path16"
         style="fill:#fff1e0;fill-opacity:1;fill-rule:nonzero;stroke:none"
         d="m 145.582,52.2539 12.012,39.4727 11.648,-39.4727 z m 31.856,76.6641 c -0.762,2.477 -2.481,3.426 -5.333,3.426 h -28.222 c -2.871,0 -4.59,-0.949 -5.352,-3.426 L 96.7617,6.67969 C 96.5664,5.90625 96.3828,5.33203 96.3828,4.57813 c 0,-1.53125 0.7617,-2.67579 3.0547,-2.67579 h 26.3205 c 3.047,0 4.949,1.14454 5.722,3.82032 l 5.899,19.64844 h 39.863 l 5.723,-19.64844 c 0.762,-2.67578 2.676,-3.82032 5.723,-3.82032 h 27.078 c 2.297,0 3.058,1.14454 3.058,2.67579 0,0.7539 -0.195,1.32812 -0.383,2.10156 L 177.438,128.918" /><path
         id="path18"
         style="fill:#fff1e0;fill-opacity:1;fill-rule:nonzero;stroke:none"
         d="m 287.344,30.5078 c -2.871,-1.1328 -6.485,-1.3281 -10.117,-1.3281 h -12.391 v 25.3711 h 9.727 c 4.949,0 8.945,-0.5781 11.824,-1.7305 5.515,-2.0976 7.801,-6.1015 7.801,-11.0547 0,-6.2968 -2.848,-9.539 -6.844,-11.2578 z m -22.508,74.1872 h 7.242 c 3.051,0 5.918,-0.761 8.02,-2.468 2.461,-1.907 3.996,-4.9614 3.996,-9.3559 0,-5.332 -2.688,-8.3789 -5.735,-9.9023 -2.851,-1.3477 -5.898,-1.5352 -7.812,-1.5352 h -5.711 z M 302.02,70.7617 v 0.75 c 10.683,4.9531 15.832,14.875 15.832,27.2656 0,10.6957 -4.969,18.7027 -12.032,24.2307 -9.902,7.441 -21.726,8.769 -33.175,8.769 h -37.95 c -1.902,0 -3.433,-1.523 -3.433,-3.437 V 5.33203 c 0,-1.90625 1.531,-3.42969 3.433,-3.42969 h 50.168 c 21.36,0 43.672,11.26176 43.672,35.47266 0,17.1758 -7.637,28.6094 -26.515,33.3867" /><path
         id="path20"
         style="fill:#fff1e0;fill-opacity:1;fill-rule:nonzero;stroke:none"
         d="m 424.922,71.7109 c -10.117,7.8086 -24.414,10.6719 -35.098,13.9141 -8.965,2.6758 -15.437,5.3398 -15.437,11.25 0,2.2969 1.328,4.395 4.199,5.918 2.078,0.957 5.332,1.719 9.527,1.719 12.778,0 23.266,-4.9612 31.66,-9.5432 1.711,-0.9454 3.235,-0.379 4.192,1.3398 l 10.871,22.6954 c 0.762,1.719 0.379,3.437 -1.328,4.383 -8.203,4.191 -21.352,10.109 -43.496,10.109 -15.625,0 -28.032,-3.633 -36.407,-9.726 -9.726,-6.856 -14.699,-16.973 -14.699,-28.4184 0,-15.2539 6.114,-23.6407 14.699,-30.1368 9.715,-7.0507 22.672,-9.914 32.606,-13.1562 9.148,-2.8594 16.016,-6.1016 16.016,-12.7617 0,-1.9219 -0.567,-5.1563 -3.821,-7.4531 -2.285,-1.7071 -6.093,-2.8594 -11.812,-2.8594 -13.735,0 -24.614,5.9179 -33.574,11.4453 -1.899,1.1406 -3.43,0.3711 -4.204,-1.3281 L 337.938,16.3867 c -0.946,-1.8945 -0.36,-3.4179 1.347,-4.375 C 349.402,6.10156 365.422,0 386.965,0 c 14.695,0 27.84,4.00391 37.183,11.4336 9.172,7.2578 14.883,17.5508 14.883,30.5195 0,14.2969 -5.711,23.4571 -14.109,29.7578" /><path
         id="path22"
         style="fill:#fff1e0;fill-opacity:1;fill-rule:nonzero;stroke:none"
         d="m 390.547,498.648 c -6.277,21.176 -15.535,28.801 -36.192,28.801 H 330.188 V 377.117 c 0,-20.453 5.457,-22.746 27.644,-23.597 v -7.54 h -94.504 v 7.54 c 22.192,0.851 27.656,3.144 27.656,23.597 v 150.332 h -24.207 c -20.664,0 -29.914,-7.625 -36.191,-28.801 h -9.844 l 3.965,43.231 h 171.711 l 4.004,-43.231 z m -186.309,0.032 c -6.914,21.89 -14.425,28.769 -52.715,28.769 h -29.668 c -8.957,0 -10.937,-1.984 -10.937,-10.058 v -61.969 h 14.629 c 30.547,0 37.148,5.531 40.898,25.996 h 7.481 v -69.145 h -7.481 c -4.004,23.016 -15.547,28.813 -40.898,28.813 h -14.629 v -63.969 c 0,-20.453 5.488,-22.746 28.809,-23.597 v -7.54 H 46.9531 v 7.54 c 19.3164,0.851 24.7852,3.144 24.7852,23.597 v 133.641 c 0,20.492 -5.4688,22.773 -24.1992,23.633 v 7.488 H 211.172 l 1.113,-43.199 z M 433.645,602.898 H 0 V 170.34 h 433.645 v 432.558" /></g></g></svg>