<svg xmlns="http://www.w3.org/2000/svg" viewBox="0 0 168.32 231.56"><title>Logo_vector</title><g id="text_vector"><path d="M10.7,181.5a1,1,0,0,1,1.06,1.06v38.27H32.42a1.07,1.07,0,0,1,1.14,1.07v6.88a1.11,1.11,0,0,1-1.14,1.07H2.68a1.11,1.11,0,0,1-1.14-1.07V182.56a1.11,1.11,0,0,1,1.14-1.06Z" transform="translate(0 0)" style="fill:#fff1e6;stroke:#fff1e6;stroke-miterlimit:10;stroke-width:2px"/><path d="M47.55,228.64a1.66,1.66,0,0,1-1.78,1.21h-8c-.71,0-1-.36-1-.85a3.05,3.05,0,0,1,.14-.71l16.54-45.87c.21-.85.78-1.13,1.7-1.13h8.45c.93,0,1.49.28,1.71,1.13L81.7,228.29a3.05,3.05,0,0,1,.14.71c0,.49-.29.85-1,.85H72.68c-1,0-1.56-.36-1.77-1.21L68,220.05H50.46Zm11.78-34.93L53,211.89h12.5Z" transform="translate(0 0)" style="fill:#fff1e6;stroke:#fff1e6;stroke-miterlimit:10;stroke-width:2px"/><path d="M108.18,229.85H89.29a1.11,1.11,0,0,1-1.13-1.07V182.56a1.11,1.11,0,0,1,1.13-1.06h14.63c4,0,8.24.5,11.79,3.05a11.14,11.14,0,0,1,4.68,9.23c0,4.9-2.13,8.52-6,10.3v.28c6.88,1.63,10,6,10,12.43C124.37,225.8,116.27,229.85,108.18,229.85Zm-.28-38.91a7.13,7.13,0,0,0-4.05-1.14H98.38v11.36h4.83a9.83,9.83,0,0,0,4.19-.71,5.05,5.05,0,0,0,2.7-4.89A5.26,5.26,0,0,0,107.9,190.94Zm2.69,19.31c-1.42-.71-3.26-.85-6-.85H98.38v12.14H106a11.5,11.5,0,0,0,4.54-.71,5.31,5.31,0,0,0,3.41-5.39A5.38,5.38,0,0,0,110.59,210.25Z" transform="translate(0 0)" style="fill:#fff1e6;stroke:#fff1e6;stroke-miterlimit:10;stroke-width:2px"/><path d="M131.4,226a1,1,0,0,1-.43-1.34l3.27-6.89a.87.87,0,0,1,1.34-.43c3.27,2.06,7.39,4.4,13,4.4a9.24,9.24,0,0,0,5.54-1.42,5,5,0,0,0,2-4.11c0-2.91-2.55-4.48-6-5.68-3.83-1.42-8.66-2.35-12.78-4.9a12.9,12.9,0,0,1-1-21.16c3-2.27,7.59-3.62,13.34-3.62a31.23,31.23,0,0,1,15.48,3.69.93.93,0,0,1,.43,1.35l-3.27,6.89a.89.89,0,0,1-1.35.35,25,25,0,0,0-11.85-3.41,10.07,10.07,0,0,0-5.26,1.21,3.89,3.89,0,0,0-1.77,3.27c0,2.62,2.55,4,6.17,5.18,4.26,1.35,9.45,2.27,13.49,5.11a12.43,12.43,0,0,1,5.54,10.87A13.48,13.48,0,0,1,162,226.51c-3.34,2.63-8,4.05-13.28,4.05A33.3,33.3,0,0,1,131.4,226Z" transform="translate(0 0)" style="fill:#fff1e6;stroke:#fff1e6;stroke-miterlimit:10;stroke-width:2px"/></g><g id="FT_Logo" data-name="FT Logo"><path d="M0,0V167.34H167.32V0ZM79.35,45.1H76.21C74.58,28.77,71.32,26,56.73,26H45.17V57.15h9.18c9.93,0,10.43-1.64,11.19-9.43h2.89V70.47H65.54c-.76-7.79-1.26-9.29-11.19-9.29H45.17v27c0,5.54,1.51,6.78,11.69,6.78v3.39H21.06V95c7.41,0,10-.38,10-6.4V32c0-6-2.65-6.4-10-6.4v-3.4H68.67c6.4,0,8.67-.25,10.68-.62Zm75.7,0h-3.14C150.28,28.77,147,26,132.45,26h-4V88.17c0,5.91,2.27,6.78,11.7,6.78v3.39H102.57V95c9.42,0,11.8-.88,11.8-6.78V26h-4c-14.57,0-17.85,2.76-19.47,19.09H87.76V21.6c2,.37,4.28.62,10.68.62h45.93c6.4,0,8.67-.25,10.68-.62Z" transform="translate(0 0)" style="fill:#fff1e6"/></g></svg>