<?xml version="1.0" standalone="no"?>
<!DOCTYPE svg PUBLIC "-//W3C//DTD SVG 1.1//EN" "http://www.w3.org/Graphics/SVG/1.1/DTD/svg11.dtd" >
<svg xmlns="http://www.w3.org/2000/svg" xmlns:xlink="http://www.w3.org/1999/xlink" version="1.1">
<metadata></metadata>
<defs>
<font id="houschka_probold" horiz-adv-x="1228" >
<font-face units-per-em="2048" ascent="1556" descent="-492" />
<missing-glyph horiz-adv-x="528" />
<glyph unicode="&#xfb01;" horiz-adv-x="1155" d="M43 758v149q0 13 9.5 22t21.5 9h104v106q0 154 72 246q92 121 282 121q92 0 176.5 -24.5t139.5 -65.5q25 -18 12 -41l-67 -143q-8 -11 -21 -13.5t-27 4.5q-88 56 -151 56q-72 -3 -109 -43q-36 -39 -36 -127v-76h542q12 0 21.5 -9t9.5 -22v-876q0 -12 -9.5 -21.5 t-21.5 -9.5h-209q-12 0 -21 9.5t-9 21.5v694h-303v-694q0 -12 -9.5 -21.5t-21.5 -9.5h-209q-12 0 -21.5 9.5t-9.5 21.5v694h-104q-12 0 -21.5 10t-9.5 23z" />
<glyph unicode="&#xfb02;" horiz-adv-x="1140" d="M43 758v149q0 13 9.5 22t21.5 9h104v109q0 80 20.5 143t67 114.5t131 79t203.5 27.5q103 0 210 -23.5t165 -50.5q33 -11 33 -43v-1263q0 -12 -10 -21.5t-23 -9.5h-209q-12 0 -21.5 9.5t-9.5 21.5v1087q0 27 -18 37q-48 31 -121 31q-77 0 -112 -45.5t-35 -134.5v-68h172 q14 0 23 -9t9 -22v-149q0 -14 -9.5 -23.5t-22.5 -9.5h-172v-694q0 -12 -9.5 -21.5t-21.5 -9.5h-209q-12 0 -21.5 9.5t-9.5 21.5v694h-104q-12 0 -21.5 10t-9.5 23z" />
<glyph unicode="&#xfb03;" horiz-adv-x="1748" d="M43 758v149q0 13 9.5 22t21.5 9h104v88q0 185 88 281q81 84 217 84q168 0 285 -86q23 -17 12 -39l-61 -133q-14 -26 -47 -11q-59 41 -119 41q-55 0 -80 -39q-24 -39 -24 -118v-68h337v106q0 151 74 246q92 121 283 121q92 0 176 -24.5t139 -65.5q23 -16 12 -41l-69 -143 q-6 -11 -18.5 -13.5t-26.5 4.5q-88 56 -152 56q-71 -3 -108 -43t-37 -127v-76h526q12 0 21.5 -9t9.5 -22v-876q0 -12 -9.5 -21.5t-21.5 -9.5h-209q-13 0 -23 9.5t-10 21.5v694h-284v-694q0 -12 -9.5 -21.5t-21.5 -9.5h-209q-13 0 -23 9.5t-10 21.5v694h-337v-694 q0 -12 -9.5 -21.5t-21.5 -9.5h-209q-12 0 -21.5 9.5t-9.5 21.5v694h-104q-12 0 -21.5 10t-9.5 23z" />
<glyph unicode="&#xfb04;" horiz-adv-x="1748" d="M43 758v149q0 13 9.5 22t21.5 9h104v88q0 185 88 281q81 84 217 84q168 0 285 -86q23 -17 12 -39l-61 -133q-14 -26 -47 -11q-59 41 -119 41q-55 0 -80 -39q-24 -39 -24 -118v-68h337v109q0 80 20.5 143t67 114.5t131 79t203.5 27.5q104 0 210.5 -23.5t166.5 -50.5 q31 -12 31 -43v-1263q0 -12 -9.5 -21.5t-21.5 -9.5h-209q-12 0 -21 9.5t-9 21.5v1087q0 24 -19 37q-51 31 -121 31q-77 0 -112 -45.5t-35 -134.5v-68h172q12 0 21.5 -9t9.5 -22v-149q0 -13 -9.5 -23t-21.5 -10h-172v-694q0 -12 -9.5 -21.5t-21.5 -9.5h-209q-13 0 -23 9.5 t-10 21.5v694h-337v-694q0 -12 -9.5 -21.5t-21.5 -9.5h-209q-12 0 -21.5 9.5t-9.5 21.5v694h-104q-12 0 -21.5 10t-9.5 23z" />
<glyph horiz-adv-x="0" />
<glyph horiz-adv-x="682" />
<glyph unicode=" "  horiz-adv-x="528" />
<glyph unicode="&#x09;" horiz-adv-x="528" />
<glyph unicode="&#xa0;" horiz-adv-x="528" />
<glyph unicode="!" horiz-adv-x="679" d="M186 1364q-2 12 5.5 21.5t19.5 9.5h283q12 0 19 -9.5t5 -21.5l-74 -875q-2 -13 -10.5 -21.5t-21.5 -8.5h-119q-13 0 -22 9t-11 21zM190 143q0 69 46.5 115.5t115.5 46.5q68 0 115 -46.5t47 -115.5q0 -67 -47 -114t-115 -47q-69 0 -115.5 46.5t-46.5 114.5z" />
<glyph unicode="&#x22;" horiz-adv-x="741" d="M59 1348q-3 47 37 47h191q40 0 37 -47l-43 -383q-3 -45 -43 -45h-93q-37 0 -43 45zM418 1348q-6 47 35 47h192q41 0 35 -47l-41 -383q-6 -45 -45 -45h-90q-39 0 -45 45z" />
<glyph unicode="#" horiz-adv-x="1388" d="M0 231v150q0 12 9.5 21.5t21.5 9.5h274l60 278h-236q-13 0 -23 10t-10 23v149q0 12 10 21.5t23 9.5h279l71 332q9 31 47 31h136q39 0 28 -47l-67 -316h290l72 332q3 14 16 22.5t29 8.5h137q39 0 29 -47l-68 -316h232q12 0 21.5 -9.5t9.5 -21.5v-149q0 -13 -9.5 -23 t-21.5 -10h-275l-59 -278h236q13 0 22.5 -9.5t9.5 -21.5v-150q0 -13 -9 -22.5t-23 -9.5h-281l-70 -332q-9 -31 -47 -31h-137q-37 0 -29 47l68 316h-291l-69 -332q-9 -31 -46 -31h-137q-22 0 -27.5 11.5t-2.5 35.5l67 316h-229q-12 0 -21.5 9.5t-9.5 22.5zM520 412h291 l59 278h-290z" />
<glyph unicode="$" d="M123 141l88 183q10 28 37 10q60 -35 98 -55t109.5 -41t140.5 -21q101 0 149 39q56 40 56 111q0 55 -41.5 89t-122.5 64q-27 10 -102.5 32t-132.5 45t-107 54q-78 51 -121 120.5t-43 174.5q0 171 137 275q107 80 279 94v147q0 12 9.5 21.5t21.5 9.5h79q13 0 22 -9.5 t9 -21.5v-145q198 -12 354 -96q27 -13 13 -37l-86 -187q-14 -24 -39 -10q-162 94 -320 94q-93 0 -139 -32q-49 -32 -49 -91q0 -50 41 -80.5t125 -58.5q28 -9 87.5 -26t97.5 -28.5t88.5 -33.5t88.5 -49q152 -108 152 -293q0 -182 -146 -301q-106 -83 -268 -102v-142 q0 -12 -9 -21t-22 -9h-79q-12 0 -21.5 9t-9.5 21v138q-232 10 -412 120q-25 14 -12 39z" />
<glyph unicode="%" horiz-adv-x="1425" d="M51 1098q0 129 92.5 221t221.5 92q128 0 220.5 -92t92.5 -221t-92.5 -221.5t-220.5 -92.5q-129 0 -221.5 92t-92.5 222zM195 1098q0 -69 49 -117.5t118 -48.5q71 0 120.5 48.5t49.5 117.5t-50 118.5t-120 49.5q-69 0 -118 -49.5t-49 -118.5zM198.5 12q-5.5 12 4.5 27 l852 1329q18 27 45 27h104q19 0 25 -13t-4 -28l-852 -1329q-17 -25 -45 -25h-105q-19 0 -24.5 12zM748 293q0 129 92.5 221t220.5 92q129 0 221 -92t92 -221t-92 -221t-221 -92q-128 0 -220.5 91.5t-92.5 221.5zM891 293q0 -70 50 -119t122 -49q69 0 117.5 49t48.5 119 q0 69 -48.5 118.5t-117.5 49.5q-72 0 -122 -49.5t-50 -118.5z" />
<glyph unicode="&#x26;" horiz-adv-x="1411" d="M88 393q0 236 285 389q-31 60 -52.5 138t-21.5 141q0 151 98 238t279 87q163 0 255.5 -87.5t92.5 -221.5q0 -124 -75.5 -212t-221.5 -167q88 -142 209 -254q37 72 37 199q0 15 9.5 25t21.5 10h194q15 0 24 -10t9 -25q0 -201 -80 -340q71 -43 154 -53q19 -4 25.5 -13 t6.5 -28v-201q0 -13 -10.5 -20.5t-26.5 -7.5q-150 0 -329 110q-158 -110 -389 -110q-103 0 -190 24t-156 72.5t-108.5 129.5t-39.5 187zM362 389q0 -101 65 -150t179 -49q99 0 170 50q-164 143 -293 331q-121 -76 -121 -182zM569 1061q0 -75 45 -160q152 82 152 180 q0 46 -25 73.5t-67 27.5q-49 0 -77 -32.5t-28 -88.5z" />
<glyph unicode="'" horiz-adv-x="385" d="M59 1348q-3 47 37 47h191q40 0 37 -47l-43 -383q-3 -45 -43 -45h-93q-37 0 -43 45z" />
<glyph unicode="(" horiz-adv-x="696" d="M96 649q0 263 63 501.5t177 424.5q26 39 70 39h186q35 0 44.5 -20t-5.5 -48q-246 -448 -246 -897t246 -893q15 -28 5.5 -47.5t-44.5 -19.5h-186q-44 0 -70 39q-114 186 -177 423t-63 498z" />
<glyph unicode=")" horiz-adv-x="696" d="M60 -291.5q-9 19.5 6 47.5q245 442 245 893t-245 897q-15 28 -6 48t44 20h187q25 0 40 -9t29 -30q114 -186 177 -424.5t63 -501.5q0 -261 -63 -498t-177 -423q-14 -21 -29 -30t-40 -9h-187q-35 0 -44 19.5z" />
<glyph unicode="*" horiz-adv-x="880" d="M96 1233q11 36 40.5 47.5t64.5 1.5q17 -4 69 -27l107 -45l-10 117q-1 7 -4 34t-3 40q0 36 21 60t59 24t59 -24t21 -60q0 -10 -1 -22.5t-2.5 -28t-2.5 -23.5l-10 -117l106 45q60 24 70 27q35 10 64 -1.5t40 -47.5q11 -37 -4.5 -63.5t-48.5 -36.5q-15 -5 -43.5 -11.5 t-30.5 -7.5l-114 -24l80 -89q37 -41 47 -55q21 -27 19 -60t-32 -55q-34 -23 -63 -17t-51 34q-18 23 -39 63l-64 103l-61 -103q-27 -45 -41 -63q-22 -28 -51 -34t-64 17q-29 24 -31.5 56t19.5 59q10 14 47 55l80 89l-115 24q-8 2 -22.5 5.5t-27 6.5t-23.5 7q-33 10 -49 37 t-5 63z" />
<glyph unicode="+" horiz-adv-x="1179" d="M88 627v192q0 12 9.5 21.5t21.5 9.5h344v344q0 12 9 21.5t22 9.5h192q12 0 21.5 -9.5t9.5 -21.5v-344h344q13 0 23 -9.5t10 -21.5v-192q0 -13 -9.5 -22t-23.5 -9h-344v-346q0 -12 -9.5 -21.5t-21.5 -9.5h-192q-13 0 -22 9.5t-9 21.5v346h-344q-12 0 -21.5 9t-9.5 22z" />
<glyph unicode="," horiz-adv-x="557" d="M96 147q0 71 46 114.5t122 43.5q94 0 144 -60.5t53 -166.5q1 -116 -84 -221.5t-201 -139.5q-30 -8 -45 13l-27 43q-17 25 9 43t36.5 25.5t32 26.5t30.5 37.5t9 39.5q0 23 -13 39.5t-31.5 29t-36.5 27t-31 41.5t-13 65z" />
<glyph unicode="-" horiz-adv-x="1067" d="M190 477v193q0 13 9.5 22.5t21.5 9.5h625q12 0 21.5 -9.5t9.5 -22.5v-193q0 -12 -9.5 -21.5t-21.5 -9.5h-625q-12 0 -21.5 9.5t-9.5 21.5z" />
<glyph unicode="." horiz-adv-x="514" d="M96 141q0 69 47 116.5t115 47.5t115 -47.5t47 -116.5q0 -67 -47 -114t-115 -47t-115 47t-47 114z" />
<glyph unicode="/" horiz-adv-x="837" d="M-71 13q-8 13 1 32l676 1319q17 31 45 31h232q23 0 30.5 -14t-2.5 -33l-673 -1317q-16 -31 -48 -31h-231q-22 0 -30 13z" />
<glyph unicode="0" d="M84 696q0 354 135.5 536.5t394.5 182.5q258 0 393.5 -183t135.5 -536q0 -352 -135.5 -534t-393.5 -182q-259 0 -394.5 182t-135.5 534zM375 696q0 -231 65 -346q59 -102 174 -102q114 0 172 102q64 113 64 346t-64 346q-59 103 -172 103t-172 -103q-67 -113 -67 -346z " />
<glyph unicode="1" d="M186 31v192q0 12 9.5 21.5t21.5 9.5h295v850l-279 -98q-22 -7 -32.5 -0.5t-10.5 32.5v189q0 35 31 45l350 121q40 12 66 12h139q13 0 22 -9.5t9 -21.5v-1120h276q12 0 21.5 -9.5t9.5 -21.5v-192q0 -12 -9.5 -21.5t-21.5 -9.5h-866q-12 0 -21.5 9.5t-9.5 21.5z" />
<glyph unicode="2" d="M133 31v102q0 149 35.5 246.5t118.5 179.5q59 59 142 107t164 90.5t128 83.5q78 68 78 159q0 72 -47 119q-51 51 -148 51q-150 0 -319 -116q-37 -21 -49 6l-82 168q-11 23 12 41q106 68 212.5 106.5t250.5 38.5q106 0 195.5 -36.5t150.5 -102.5q100 -108 100 -266 q0 -191 -143 -324q-59 -55 -138 -100t-153.5 -84.5t-120.5 -79.5q-38 -32 -54.5 -70t-16.5 -96h585q13 0 23 -9.5t10 -21.5v-192q0 -12 -10 -21.5t-23 -9.5h-870q-13 0 -22 9.5t-9 21.5z" />
<glyph unicode="3" d="M141 127l82 168q13 26 43 6q75 -51 138.5 -70.5t134.5 -19.5q90 0 143 35q76 49 76 153q0 109 -94 162q-60 35 -181 35h-90q-12 0 -21.5 9t-9.5 22v166q0 13 9.5 22.5t21.5 9.5h68q112 0 176 35q82 52 82 152q0 72 -53 116q-48 41 -117 41q-124 0 -264 -94q-33 -23 -47 6 l-80 160q-14 29 12 45q90 59 183.5 93t217.5 34q170 0 281 -90q63 -51 96 -122.5t33 -153.5q0 -66 -18.5 -123.5t-65 -110t-119.5 -84.5q254 -94 254 -356q0 -190 -141 -297q-130 -96 -332 -96q-239 0 -407 106q-25 19 -11 41z" />
<glyph unicode="4" horiz-adv-x="1230" d="M53 299v168q0 28 19 55l606 848q19 29 53 29h197q12 0 21 -10t9 -23v-856h177q12 0 21 -10t9 -23v-178q0 -13 -9 -22t-21 -9h-177v-237q0 -12 -9 -21.5t-21 -9.5h-221q-12 0 -21.5 9.5t-9.5 21.5v237h-592q-12 0 -21.5 9t-9.5 22zM362 510h314v444z" />
<glyph unicode="5" d="M147 139l78 166q15 27 39 10q83 -55 145 -79.5t156 -24.5q114 0 174 72q60 66 60 172q0 116 -54 176q-57 63 -157 63q-81 0 -131 -37q-53 -31 -78 -77q-16 -26 -43 -17l-135 27q-21 4 -27 13t-4 34l49 727q2 13 11 22t22 9h731q12 0 21.5 -9.5t9.5 -21.5v-193 q0 -13 -9.5 -22.5t-21.5 -9.5h-516l-21 -258q22 13 84 32q50 13 99 13q238 0 352 -142q104 -122 104 -327q0 -198 -124 -328q-140 -149 -396 -149q-244 0 -405 116q-27 17 -13 43z" />
<glyph unicode="6" d="M109 641q0 371 153 573q153 199 430 199q120 0 223 -27q82 -22 164 -73q27 -15 13 -39l-84 -176q-13 -30 -45 -11q-55 31 -123 54q-71 22 -152 22q-142 0 -219 -125q-54 -85 -61 -233q49 42 108 63q74 29 154 29q229 0 348 -145q98 -116 98 -306q0 -105 -38 -194 t-105 -150q-134 -122 -344 -122q-248 0 -375 149q-145 164 -145 512zM395 547q3 -83 20.5 -144t40.5 -94.5t55.5 -53t59 -25t58.5 -5.5q91 0 148 60.5t57 152.5q0 111 -57.5 162t-141.5 51q-150 0 -240 -104z" />
<glyph unicode="7" d="M115 973v391q0 12 9 21.5t21 9.5h906q13 0 21.5 -9.5t8.5 -21.5v-170q0 -33 -12 -61l-506 -1102q-13 -31 -51 -31h-244q-25 0 -31 15.5t5 35.5l366 748q35 70 193 340h-430v-166q0 -12 -9.5 -21.5t-21.5 -9.5h-195q-12 0 -21 9.5t-9 21.5z" />
<glyph unicode="8" d="M94 365q0 73 23.5 133t66.5 104.5t86.5 74.5t100.5 58q-40 26 -64 43.5t-57.5 49.5t-52.5 62.5t-33 75t-14 95.5q0 72 26 131.5t70 100t103.5 68t125.5 40t137 12.5q66 0 130 -12t125.5 -39.5t108 -67t75 -100.5t28.5 -135q0 -65 -18 -118t-54 -92.5t-65.5 -62.5 t-75.5 -51q53 -33 84 -54t71.5 -56t61.5 -68.5t36.5 -81.5t15.5 -104q0 -178 -138 -284.5t-383 -106.5q-250 0 -385 104t-135 281zM383 389q0 -36 12 -68t37 -60.5t72 -45t110 -16.5q121 0 178.5 54.5t57.5 135.5q0 70 -63 122t-185 103q-219 -87 -219 -225zM434 1059 q0 -39 17 -72t51 -59t61 -41t70 -35q164 81 164 195q0 72 -52 112.5t-127 40.5q-78 0 -131 -33t-53 -108z" />
<glyph unicode="9" d="M111 944q0 105 38 194t105 150q135 123 344 123q248 0 375 -149q145 -164 145 -512q0 -372 -153 -574q-153 -199 -430 -199q-121 0 -224 27q-79 22 -164 74q-26 14 -12 39l84 176q13 29 45 10q50 -28 123 -53q74 -23 152 -23q142 0 219 125q54 85 61 234 q-51 -44 -108 -64q-72 -28 -154 -28q-229 0 -348 145q-98 116 -98 305zM393 952q0 -59 16.5 -102.5t45.5 -67t62.5 -34.5t72.5 -11q133 0 239 109q-10 319 -231 319q-92 0 -148.5 -61.5t-56.5 -151.5z" />
<glyph unicode=":" horiz-adv-x="534" d="M104 141q0 69 48 116.5t116 47.5t115 -47.5t47 -116.5q0 -67 -47 -114t-115 -47t-116 47t-48 114zM104 793q0 67 48 115t116 48q67 0 114.5 -47.5t47.5 -115.5q0 -67 -47 -114.5t-115 -47.5t-116 47.5t-48 114.5z" />
<glyph unicode=";" horiz-adv-x="534" d="M104 147q0 71 45.5 114.5t120.5 43.5q96 0 145.5 -60.5t51.5 -166.5q3 -116 -81.5 -221t-201.5 -140q-30 -8 -45 13l-26 43q-17 25 8 43q26 18 36.5 25.5t32 26.5t30.5 37.5t9 39.5q0 23 -13 39.5t-31.5 29t-36.5 27t-31 41.5t-13 65zM119 793q0 68 47.5 115.5 t114.5 47.5t114 -47.5t47 -115.5t-47 -115t-114 -47t-114.5 47.5t-47.5 114.5z" />
<glyph unicode="&#x3c;" horiz-adv-x="1290" d="M98 596v254q0 20 7 30.5t24 16.5l1001 389q14 7 29 2t15 -26v-226q0 -40 -33 -51l-735 -262l735 -262q33 -11 33 -51v-226q0 -21 -15 -26t-29 2l-1001 387q-31 11 -31 49z" />
<glyph unicode="=" horiz-adv-x="1181" d="M88 387v193q0 12 9.5 21t21.5 9h942q13 0 23 -9t10 -21v-193q0 -12 -10 -21.5t-23 -9.5h-942q-12 0 -21.5 9.5t-9.5 21.5zM88 862v193q0 12 9.5 21t21.5 9h942q13 0 23 -9t10 -21v-193q0 -12 -10 -21.5t-23 -9.5h-942q-12 0 -21.5 9.5t-9.5 21.5z" />
<glyph unicode="&#x3e;" horiz-adv-x="1296" d="M115 184v226q0 40 35 51l735 262l-735 262q-35 11 -35 51v226q0 21 15.5 26t27.5 -2l1003 -389q17 -6 24 -16.5t7 -30.5v-254q0 -38 -31 -49l-1003 -387q-12 -7 -27.5 -2t-15.5 26z" />
<glyph unicode="?" horiz-adv-x="1069" d="M63 1190q-8 20 15 43q217 182 469 182q193 0 321 -115q125 -112 125 -282q0 -107 -48 -183t-159 -153q-92 -63 -121 -111.5t-36 -121.5q0 -14 -12 -23.5t-25 -9.5h-143q-25 0 -41 28q-23 56 -23 109q0 87 86 184q22 23 47 45t71 59.5t60 49.5q70 59 70 127q0 73 -53 117 q-54 41 -131 41q-94 0 -174 -38.5t-179 -115.5q-9 -6 -22 -3t-17 15zM350 141q0 69 47 116.5t115 47.5q69 0 115.5 -47.5t46.5 -116.5q0 -68 -46.5 -114.5t-115.5 -46.5q-68 0 -115 47t-47 114z" />
<glyph unicode="@" horiz-adv-x="1642" d="M94 694q0 145 61.5 278.5t164.5 230.5t245 154.5t297 57.5q191 0 345 -72.5t246.5 -212.5t92.5 -325q0 -139 -45 -258t-133 -193.5t-201 -74.5q-107 0 -129 90q-79 -95 -237 -95q-109 0 -193 52q-106 72 -106 194q0 165 213 232q109 31 301 41q0 91 -47 141 q-51 51 -138 51q-62 0 -111.5 -18t-107.5 -52q-12 -8 -25.5 -5.5t-19.5 14.5l-28 57q-11 25 14 41q134 90 278 90q135 0 224 -78q98 -84 98 -254v-329q0 -56 45 -56q28 0 58.5 13.5t61 45t54.5 76.5t39.5 115t15.5 154q0 154 -75.5 269.5t-202 173.5t-285.5 58 q-175 0 -325 -82.5t-238 -223.5t-88 -306q0 -183 86 -322.5t235 -213.5t336 -74q143 0 278.5 31t217.5 75q13 8 26 4.5t19 -16.5l21 -59q8 -22 -17 -39q-92 -52 -246.5 -82.5t-298.5 -30.5q-222 0 -398 90t-277 258t-101 385zM639 514q0 -59 45 -92q44 -35 119 -35 q148 0 215 111v182q-201 -10 -285 -49q-94 -41 -94 -117z" />
<glyph unicode="A" horiz-adv-x="1419" d="M135 31v800q0 131 52 252.5t153 204.5q148 125 369 125q222 0 370 -125q102 -83 153.5 -204t51.5 -253v-800q0 -12 -9.5 -21.5t-21.5 -9.5h-233q-12 0 -21.5 9.5t-9.5 21.5v395h-559v-395q0 -12 -9.5 -21.5t-21.5 -9.5h-233q-12 0 -21.5 9.5t-9.5 21.5zM430 688h559v131 q0 155 -84 246q-77 74 -196 74t-193 -74q-86 -89 -86 -246v-131z" />
<glyph unicode="B" horiz-adv-x="1267" d="M137 31v1333q0 12 10 21.5t23 9.5h422q219 0 340 -88q135 -100 135 -267q0 -106 -44.5 -182.5t-129.5 -114.5v-8q289 -68 289 -358q0 -94 -40 -168t-107 -118.5t-148.5 -67.5t-171.5 -23h-545q-13 0 -23 9.5t-10 21.5zM432 240h219q85 0 131 20q99 43 99 156 q0 105 -97 149q-51 25 -174 25h-178v-350zM432 827h139q75 0 121 21q78 40 78 141q0 89 -63 133q-47 33 -117 33h-158v-328z" />
<glyph unicode="C" horiz-adv-x="1339" d="M82 698q0 200 99 364.5t270.5 257.5t377.5 93q234 0 422 -96q28 -17 15 -43l-95 -197q-12 -27 -41 -12q-164 82 -307 82q-179 0 -305.5 -129.5t-126.5 -319.5q0 -198 124 -324t310 -126q164 0 318 82q27 12 37 -11l94 -200q12 -27 -14 -39q-198 -100 -437 -100 q-339 0 -540 194.5t-201 523.5z" />
<glyph unicode="D" horiz-adv-x="1519" d="M137 31v1333q0 12 10 21.5t23 9.5h522q180 0 321.5 -46.5t254.5 -166.5q168 -180 168 -484q0 -198 -76 -353t-236 -245q-179 -100 -458 -100h-496q-13 0 -23 9.5t-10 21.5zM432 248h213q168 0 281 55q209 105 209 395q0 205 -107 318q-122 131 -377 131h-219v-899z" />
<glyph unicode="E" horiz-adv-x="1265" d="M137 31v1333q0 12 10 21.5t23 9.5h987q13 0 23 -9.5t10 -21.5v-201q0 -12 -10 -21t-23 -9h-725v-302h619q12 0 21 -9t9 -21v-199q0 -13 -9 -23t-21 -10h-619v-309h725q14 0 23.5 -9t9.5 -22v-198q0 -12 -10 -21.5t-23 -9.5h-987q-13 0 -23 9.5t-10 21.5z" />
<glyph unicode="F" horiz-adv-x="1189" d="M137 31v1333q0 12 10 21.5t23 9.5h928q12 0 21 -9.5t9 -21.5v-201q0 -12 -9 -21t-21 -9h-666v-302h574q12 0 21 -9t9 -21v-199q0 -13 -9 -23t-21 -10h-574v-538q0 -12 -9 -21.5t-22 -9.5h-231q-13 0 -23 9.5t-10 21.5z" />
<glyph unicode="G" horiz-adv-x="1527" d="M82 698q0 149 59 282.5t159 228t238 149.5t291 55q234 0 422 -96q28 -17 15 -43l-95 -197q-10 -23 -41 -12q-64 28 -94.5 40.5t-92 27t-120.5 14.5q-182 0 -308 -130t-126 -319q0 -200 120.5 -328t313.5 -128q84 0 163 22.5t134 57.5v170h-282q-12 0 -21.5 9t-9.5 21v201 q0 12 9.5 21.5t21.5 9.5h530q13 0 22 -9.5t9 -21.5v-692q0 -12 -9 -21.5t-22 -9.5h-217q-12 0 -21.5 9.5t-9.5 21.5v24q-137 -75 -327 -75q-150 0 -279 47t-225.5 136t-151.5 226.5t-55 308.5z" />
<glyph unicode="H" horiz-adv-x="1501" d="M137 31v1333q0 12 10 21.5t23 9.5h231q13 0 22 -9.5t9 -21.5v-533h635v533q0 12 9.5 21.5t21.5 9.5h233q12 0 21.5 -9.5t9.5 -21.5v-1333q0 -12 -9.5 -21.5t-21.5 -9.5h-233q-12 0 -21.5 9.5t-9.5 21.5v540h-635v-540q0 -12 -9 -21.5t-22 -9.5h-231q-13 0 -23 9.5 t-10 21.5z" />
<glyph unicode="I" horiz-adv-x="571" d="M137 31v1333q0 12 10 21.5t23 9.5h231q13 0 22 -9.5t9 -21.5v-1333q0 -12 -9 -21.5t-22 -9.5h-231q-13 0 -23 9.5t-10 21.5z" />
<glyph unicode="J" horiz-adv-x="1091" d="M27 160l108 184q7 10 17.5 12t23.5 -8q121 -108 244 -108q112 0 172 57q70 70 70 235v832q0 12 9 21.5t21 9.5h234q12 0 21 -9.5t9 -21.5v-858q0 -280 -168 -416q-136 -110 -364 -110q-111 0 -212.5 37t-178.5 100q-23 16 -6 43z" />
<glyph unicode="K" horiz-adv-x="1339" d="M137 31v1333q0 12 10 21.5t23 9.5h231q13 0 22 -9.5t9 -21.5v-530l481 530q28 31 64 31h297q21 0 26 -15t-12 -32l-536 -557l553 -738q15 -17 12 -35t-29 -18h-274q-38 0 -60 31l-409 542l-113 -114v-428q0 -12 -9 -21.5t-22 -9.5h-231q-13 0 -23 9.5t-10 21.5z" />
<glyph unicode="L" horiz-adv-x="1110" d="M137 31v1333q0 12 10 21.5t23 9.5h231q13 0 22 -9.5t9 -21.5v-1104h596q14 0 23.5 -9t9.5 -22v-198q0 -12 -10 -21.5t-23 -9.5h-858q-13 0 -23 9.5t-10 21.5z" />
<glyph unicode="M" horiz-adv-x="1720" d="M137 31v1333q0 12 10 21.5t23 9.5h233q21 0 34 -6.5t24 -26.5l397 -690l399 690q10 20 22.5 26.5t33.5 6.5h235q13 0 23 -9.5t10 -21.5v-1333q0 -12 -10 -21.5t-23 -9.5h-221q-13 0 -23 9.5t-10 21.5v852l-297 -518q-10 -18 -20 -25.5t-29 -7.5h-170q-32 0 -49 33 l-305 518v-852q0 -12 -10 -21.5t-23 -9.5h-221q-13 0 -23 9.5t-10 21.5z" />
<glyph unicode="N" horiz-adv-x="1521" d="M137 31v1333q0 12 10 21.5t23 9.5h205q18 0 29.5 -7t25.5 -26l670 -873v875q0 12 9 21.5t21 9.5h222q12 0 21 -9.5t9 -21.5v-1333q0 -12 -9 -21.5t-21 -9.5h-205q-20 0 -32 6t-25 25l-670 872v-872q0 -12 -9.5 -21.5t-21.5 -9.5h-219q-13 0 -23 9.5t-10 21.5z" />
<glyph unicode="O" horiz-adv-x="1658" d="M82 694q0 159 58 294t158.5 228t237.5 145t293 52t293 -52.5t237 -145.5t158 -228t58 -293t-58 -292.5t-158 -226.5t-237 -143.5t-293 -51.5q-209 0 -378.5 87.5t-269 251.5t-99.5 375zM395 694q0 -189 123.5 -314.5t310.5 -125.5t310 126t123 314q0 189 -123 316 t-310 127t-310.5 -127.5t-123.5 -315.5z" />
<glyph unicode="P" horiz-adv-x="1323" d="M137 31v1333q0 12 10 21.5t23 9.5h580q205 0 333 -105q80 -66 125 -164.5t45 -218.5q0 -124 -49 -225.5t-135 -167.5q-121 -94 -319 -94h-318v-389q0 -12 -9 -21.5t-22 -9.5h-231q-13 0 -23 9.5t-10 21.5zM432 678h273q102 0 157 37q92 56 92 192q0 131 -88 189 q-64 41 -155 41h-279v-459z" />
<glyph unicode="Q" horiz-adv-x="1656" d="M82 694q0 156 60 291.5t162 228.5t238.5 146t286.5 53q149 0 285.5 -53t238 -146t162 -228.5t60.5 -291.5q0 -128 -41.5 -243.5t-114 -203t-170.5 -149t-213 -90.5q0 -17 23 -24q118 -37 283.5 -78.5t267.5 -55.5q42 -6 24 -40l-106 -191q-14 -27 -49 -27q-37 0 -98 15 t-149 45.5t-166.5 59.5t-199 75t-198.5 74q-33 11 -33 53v90q-241 57 -397 244.5t-156 445.5zM395 694q0 -189 123.5 -314.5t310.5 -125.5t310 125.5t123 314.5t-123 316t-310 127t-310.5 -127.5t-123.5 -315.5z" />
<glyph unicode="R" horiz-adv-x="1361" d="M137 31v1333q0 12 10 21.5t23 9.5h598q224 0 352 -95q77 -57 119.5 -150.5t42.5 -207.5q0 -210 -156 -342q-54 -46 -125 -76l304 -471q8 -13 9.5 -24.5t-5 -20t-23.5 -8.5h-256q-24 0 -36.5 6t-22.5 25l-275 452h-264v-452q0 -12 -9 -21.5t-22 -9.5h-231q-13 0 -23 9.5 t-10 21.5zM432 733h287q128 0 180 35q84 53 84 170q0 113 -78 168q-61 39 -162 39h-311v-412z" />
<glyph unicode="S" horiz-adv-x="1185" d="M66 150l94 198q14 28 39 12q60 -38 104.5 -61t119.5 -44.5t150 -21.5q106 0 160 41q60 44 60 119q0 59 -45.5 97t-129.5 67q-33 12 -111 35.5t-141 48t-116 57.5q-83 55 -128.5 129.5t-45.5 188.5q0 184 145 293q139 104 385 104q252 0 447 -106q12 -6 15 -17.5t-3 -21.5 l-94 -199q-14 -25 -39 -10q-181 98 -342 98q-94 0 -152 -35q-51 -36 -51 -94q0 -53 45 -86t133 -63q28 -9 93.5 -27.5t105.5 -31t94.5 -36.5t95.5 -53q160 -110 160 -313q0 -204 -153 -322q-147 -116 -383 -116q-280 0 -500 131q-24 14 -12 39z" />
<glyph unicode="T" horiz-adv-x="1226" d="M16 1163v201q0 12 9.5 21.5t21.5 9.5h1131q13 0 22.5 -9.5t9.5 -21.5v-201q0 -12 -9.5 -21t-22.5 -9h-418v-1102q0 -12 -9.5 -21.5t-21.5 -9.5h-233q-12 0 -21.5 9.5t-9.5 21.5v1102h-418q-12 0 -21.5 9t-9.5 21z" />
<glyph unicode="U" horiz-adv-x="1482" d="M135 551v813q0 12 9.5 21.5t21.5 9.5h233q12 0 21.5 -9.5t9.5 -21.5v-778q0 -158 70 -240q78 -96 239 -96q166 0 244 96q68 83 68 240v778q0 12 9.5 21.5t22.5 9.5h232q13 0 22 -9.5t9 -21.5v-813q0 -240 -127 -385q-163 -186 -480 -186q-155 0 -276.5 48t-198.5 138 q-129 147 -129 385z" />
<glyph unicode="V" horiz-adv-x="1388" d="M8.5 1383q6.5 12 26.5 12h248q40 0 51 -35l354 -995h4l367 995q11 35 51 35h246q19 0 25.5 -12t-1.5 -31l-520 -1327q-11 -31 -47 -31h-246q-38 0 -49 31l-508 1327q-8 19 -1.5 31z" />
<glyph unicode="W" horiz-adv-x="2142" d="M135 504v860q0 12 9.5 21.5t21.5 9.5h233q12 0 21.5 -9.5t9.5 -21.5v-856q0 -125 66 -191q65 -65 180 -65q119 0 180 67q68 77 68 228v817q0 12 8.5 21.5t21.5 9.5h232q13 0 23 -9.5t10 -21.5v-817q0 -154 65 -228q61 -67 180 -67q121 0 183 65q63 66 63 191v856 q0 12 9.5 21.5t21.5 9.5h233q12 0 21.5 -9.5t9.5 -21.5v-860q0 -249 -141 -383q-142 -139 -400 -139q-125 0 -225 43q-105 48 -168 137q-66 -89 -170 -137q-100 -43 -225 -43q-258 0 -400 139q-141 134 -141 383z" />
<glyph unicode="X" horiz-adv-x="1435" d="M3 15q-6 15 9 34l527 645l-516 649q-14 19 -8 35.5t30 16.5h307q30 0 51 -31l318 -430l307 430q24 31 55 31h310q24 0 30 -16.5t-10 -35.5l-508 -643l518 -651q15 -19 9.5 -34t-29.5 -15h-305q-20 0 -31 6.5t-23 22.5l-325 444l-328 -444q-19 -29 -51 -29h-307 q-24 0 -30 15z" />
<glyph unicode="Y" horiz-adv-x="1351" d="M3.5 1379q5.5 16 29.5 16h268q35 0 51 -31l322 -492l323 492q19 31 54 31h268q24 0 29 -16t-9 -36l-518 -763v-549q0 -12 -9 -21.5t-21 -9.5h-234q-12 0 -21.5 9.5t-9.5 21.5v551l-514 761q-14 20 -8.5 36z" />
<glyph unicode="Z" horiz-adv-x="1263" d="M18 27q0 7 7 18l700 1088h-635q-12 0 -21.5 9t-9.5 21v201q0 12 9.5 21.5t21.5 9.5h1092q30 0 30 -27q0 -9 -6 -18l-700 -1090h688q14 0 23.5 -9t9.5 -22v-198q0 -12 -10 -21.5t-23 -9.5h-1145q-31 0 -31 27z" />
<glyph unicode="[" horiz-adv-x="808" d="M133 -281v1864q0 12 9 21.5t22 9.5h547q13 0 21.5 -9.5t8.5 -21.5v-184q0 -14 -8.5 -23.5t-21.5 -9.5h-289v-1432h289q13 0 21.5 -9t8.5 -21v-185q0 -12 -8.5 -21t-21.5 -9h-547q-13 0 -22 9t-9 21z" />
<glyph unicode="\" horiz-adv-x="675" d="M35 1348q-11 47 31 47h194q42 0 53 -43l365 -1307q14 -45 -29 -45h-194q-43 0 -56 41z" />
<glyph unicode="]" horiz-adv-x="808" d="M66 -96q0 12 9.5 21t22.5 9h289v1432h-289q-13 0 -22.5 9.5t-9.5 23.5v184q0 12 9.5 21.5t22.5 9.5h547q12 0 21.5 -9.5t9.5 -21.5v-1864q0 -13 -9.5 -22.5t-21.5 -9.5h-547q-14 0 -23 9.5t-9 22.5v185z" />
<glyph unicode="^" horiz-adv-x="1153" d="M69 813.5q-6 16.5 5 26.5l387 596q12 17 22 23.5t29 6.5h129q19 0 29 -6.5t22 -23.5l389 -596q9 -10 3 -26.5t-27 -16.5h-197q-20 0 -30 8t-21 26l-231 359l-232 -359q-9 -13 -14 -18.5t-15 -10.5t-24 -5h-197q-21 0 -27 16.5z" />
<glyph unicode="_" horiz-adv-x="940" d="M-31 -147q0 13 8.5 21.5t22.5 8.5h940q12 0 21.5 -8.5t9.5 -21.5v-142q0 -12 -9.5 -21t-21.5 -9h-940q-13 0 -22 9t-9 21v142z" />
<glyph unicode="`" horiz-adv-x="952" d="M258.5 1550q5.5 15 26.5 15h186q27 0 43 -31l156 -315q4 -8 6 -16.5t1.5 -18t-7 -15.5t-19.5 -6h-141q-27 0 -47 33l-199 322q-11 17 -5.5 32z" />
<glyph unicode="a" horiz-adv-x="995" d="M70 268q0 160 170 238q131 57 370 74v20q0 72 -28 107q-33 41 -113 41q-123 0 -256 -74q-32 -19 -45 10l-59 129q-11 25 12 41q73 46 173.5 74t207.5 28q201 0 297 -106q82 -92 82 -250v-569q0 -12 -9.5 -21.5t-21.5 -9.5h-180q-13 0 -23 9.5t-10 21.5v16h-8 q-60 -38 -117.5 -52.5t-132.5 -14.5q-133 0 -217 75q-92 76 -92 213zM328 276q0 -47 39 -71.5t100 -24.5q80 0 143 39v178q-282 -9 -282 -121z" />
<glyph unicode="b" horiz-adv-x="1128" d="M133 39v1325q0 12 9 21.5t22 9.5h209q12 0 21 -9.5t9 -21.5v-438q92 30 199 30q200 0 326 -135q123 -129 123 -354q0 -196 -113 -324q-147 -163 -457 -163q-213 0 -317 22q-31 7 -31 37zM403 207q32 -4 103 -4q146 0 217 92q53 69 53 172q0 118 -65 190q-67 70 -166 70 q-69 0 -142 -27v-493z" />
<glyph unicode="c" horiz-adv-x="980" d="M76 469q0 175 102 301q71 89 182.5 136.5t243.5 47.5q175 0 307 -92q25 -18 13 -41l-80 -149q-5 -11 -18 -13t-27 5q-98 61 -195 61q-114 0 -186 -78q-66 -72 -66 -178q0 -115 68 -186q70 -76 184 -76q104 0 203 57q32 19 45 -8l76 -147q12 -21 -13 -39 q-124 -90 -317 -90q-256 0 -399 149q-123 132 -123 340z" />
<glyph unicode="d" horiz-adv-x="1120" d="M76 463q0 199 104 325q134 168 395 168q82 0 142 -16v424q0 12 9.5 21.5t21.5 9.5h208q12 0 21.5 -9.5t9.5 -21.5v-1333q0 -12 -9.5 -21.5t-21.5 -9.5h-329q-258 0 -404 123q-147 124 -147 340zM354 467q0 -117 74 -178q77 -64 227 -64h62v486q-57 14 -125 14 q-123 0 -189 -92q-49 -64 -49 -166z" />
<glyph unicode="e" horiz-adv-x="1075" d="M76 479q0 206 137 346q128 131 344 131q242 0 363 -163q86 -116 86 -354v-21q0 -14 -9 -22.5t-22 -8.5h-613q15 -78 62 -125q64 -67 182 -67t228 63q34 18 47 -8l71 -133q10 -24 -14 -41q-59 -41 -155.5 -68.5t-196.5 -27.5q-236 0 -373 137q-137 134 -137 362zM360 565 h383q-3 72 -45 123q-52 55 -139 55q-98 0 -147 -55q-42 -48 -52 -123z" />
<glyph unicode="f" horiz-adv-x="757" d="M43 758v149q0 13 9.5 22t21.5 9h104v109q0 186 94 280q84 84 230 84q92 0 176 -24.5t139 -65.5q23 -16 12 -41l-71 -150q-6 -11 -18.5 -13t-26.5 5q-85 54 -150 54q-57 0 -86 -37q-28 -38 -28 -121v-80h204q14 0 23.5 -9t9.5 -22v-149q0 -14 -10 -23.5t-23 -9.5h-204 v-694q0 -12 -9.5 -21.5t-21.5 -9.5h-209q-12 0 -21.5 9.5t-9.5 21.5v694h-104q-12 0 -21.5 10t-9.5 23z" />
<glyph unicode="g" horiz-adv-x="1155" d="M76 471q0 101 33 195t96 161q122 129 317 129q123 0 232 -75h6v26q0 13 9.5 22t21.5 9h200q12 0 21.5 -9t9.5 -22v-927q0 -249 -139 -367q-120 -100 -342 -100q-104 0 -202 27.5t-165 74.5q-23 20 -14 41l80 156q7 11 19 14.5t28 -6.5q124 -82 258 -82q101 0 153 49 q54 57 54 158v92q-95 -53 -228 -53q-188 0 -309 118q-67 66 -103 162t-36 207zM352 467q0 -133 62 -201q56 -59 143 -59q109 0 195 59v387q-99 72 -189 72q-94 0 -147 -59q-64 -76 -64 -199z" />
<glyph unicode="h" horiz-adv-x="1179" d="M133 31v1333q0 12 9 21.5t22 9.5h209q12 0 21 -9.5t9 -21.5v-520q109 112 279 112q174 0 274 -92q109 -97 109 -295v-538q0 -12 -9 -21.5t-22 -9.5h-211q-12 0 -21 9.5t-9 21.5v469q0 125 -48 178q-41 47 -122 47q-76 0 -127.5 -44.5t-72 -106t-20.5 -134.5v-409 q0 -12 -9 -21.5t-21 -9.5h-209q-13 0 -22 9.5t-9 21.5z" />
<glyph unicode="i" horiz-adv-x="536" d="M113 1352q0 65 44.5 110t110.5 45q64 0 109 -45t45 -110t-45 -110.5t-109 -45.5q-66 0 -110.5 45.5t-44.5 110.5zM133 31v876q0 13 8.5 22t22.5 9h209q12 0 21 -9t9 -22v-876q0 -12 -9 -21.5t-21 -9.5h-209q-13 0 -22 9.5t-9 21.5z" />
<glyph unicode="j" horiz-adv-x="534" d="M-20 -336q-20 20 8 41q83 62 113 136t30 235v831q0 12 10 21.5t23 9.5h209q12 0 21 -9.5t9 -21.5v-835q0 -423 -227 -555q-18 -10 -29 -9.5t-24 13.5zM111 1352q0 64 45.5 109.5t109.5 45.5q65 0 110.5 -45.5t45.5 -109.5t-46 -110t-110 -46t-109.5 45.5t-45.5 110.5z " />
<glyph unicode="k" horiz-adv-x="1103" d="M133 31v1333q0 12 9 21.5t22 9.5h209q12 0 21 -9.5t9 -21.5v-795l332 342q23 27 60 27h245q26 0 32.5 -18t-11.5 -33l-367 -340l379 -498q14 -17 9 -33t-31 -16h-242q-20 0 -31 6.5t-22 24.5l-250 342l-103 -97v-245q0 -12 -9 -21.5t-21 -9.5h-209q-13 0 -22 9.5t-9 21.5 z" />
<glyph unicode="l" horiz-adv-x="536" d="M133 31v1333q0 12 9 21.5t22 9.5h209q12 0 21 -9.5t9 -21.5v-1333q0 -12 -9 -21.5t-21 -9.5h-209q-13 0 -22 9.5t-9 21.5z" />
<glyph unicode="m" horiz-adv-x="1710" d="M133 31v876q0 13 8.5 22t22.5 9h201q12 0 21 -9t9 -22v-35h6q94 82 232 82q192 0 293 -135q110 135 303 135q166 0 264 -92q102 -92 102 -287v-544q0 -12 -9 -21.5t-21 -9.5h-209q-13 0 -22 9.5t-9 21.5v477q0 114 -41 168q-40 51 -119 51q-86 0 -129 -74 q-37 -63 -37 -198v-424q0 -12 -9 -21.5t-21 -9.5h-209q-13 0 -22 9.5t-9 21.5v477q0 114 -41 168q-40 51 -119 51q-83 0 -129 -74q-34 -58 -37 -192v-430q0 -12 -9 -21.5t-21 -9.5h-209q-13 0 -22 9.5t-9 21.5z" />
<glyph unicode="n" horiz-adv-x="1179" d="M133 31v876q0 13 8.5 22t22.5 9h201q12 0 21 -9t9 -22v-63h6q109 112 281 112q174 0 274 -92q109 -97 109 -295v-538q0 -12 -9 -21.5t-22 -9.5h-211q-12 0 -21 9.5t-9 21.5v469q0 125 -48 178q-41 47 -122 47q-76 0 -127.5 -44.5t-72 -106t-20.5 -134.5v-409 q0 -12 -9 -21.5t-21 -9.5h-209q-13 0 -22 9.5t-9 21.5z" />
<glyph unicode="o" horiz-adv-x="1167" d="M76 467q0 223 144 356t362 133t363 -133t145 -356q0 -149 -68.5 -261t-183 -169t-256.5 -57q-218 0 -362 132t-144 355zM342 467q0 -115 65.5 -187.5t174.5 -72.5t174 72.5t65 187.5t-65 187.5t-174 72.5t-174.5 -72.5t-65.5 -187.5z" />
<glyph unicode="p" horiz-adv-x="1124" d="M133 -449v1336q0 28 31 37q117 32 330 32q274 0 421 -147q132 -129 132 -342q0 -207 -111 -334q-68 -78 -171 -115.5t-218 -37.5q-84 0 -144 16v-445q0 -13 -9 -22.5t-21 -9.5h-209q-13 0 -22 9t-9 23zM403 219q50 -18 115 -18q120 0 187 59q73 67 73 207q0 117 -65 192 q-70 76 -193 76q-70 0 -117 -8v-508z" />
<glyph unicode="q" horiz-adv-x="1122" d="M76 461q0 207 119 332q75 81 187.5 122t246.5 41q195 0 325 -43q21 -6 28 -15.5t7 -25.5v-1321q0 -13 -9.5 -22.5t-21.5 -9.5h-208q-14 0 -23.5 9.5t-9.5 22.5v496q-80 -67 -217 -67q-179 0 -293 114q-131 131 -131 367zM344 465q0 -124 55 -195q53 -69 148 -69 q91 0 130.5 64.5t39.5 166.5v289q-55 10 -111 10q-139 0 -211 -94q-51 -66 -51 -172z" />
<glyph unicode="r" horiz-adv-x="872" d="M133 31v876q0 13 8.5 22t22.5 9h201q12 0 21 -9t9 -22v-55h6q87 104 230 104q140 0 229 -77q23 -20 10 -43l-75 -162q-6 -12 -20 -14t-27 6q-87 53 -166 53q-50 0 -86.5 -21.5t-55.5 -59.5t-28 -81.5t-9 -95.5v-430q0 -12 -9 -21.5t-21 -9.5h-209q-13 0 -22 9.5t-9 21.5z " />
<glyph unicode="s" horiz-adv-x="880" d="M68 96l75 158q13 25 39 12q69 -40 120 -58t112 -18q108 0 108 74q0 16 -5.5 28t-20.5 22.5t-26 16.5t-36 17q-23 11 -91 37.5t-105 44.5q-152 74 -152 246q0 131 98 205.5t277 74.5q189 0 317 -71q28 -14 13 -41l-74 -152q-11 -23 -37 -10q-108 59 -211 59q-96 0 -96 -65 q0 -28 23.5 -46t66.5 -34q22 -9 60.5 -23.5t69.5 -27t60 -27.5q154 -74 154 -237q0 -131 -105.5 -216t-281.5 -85q-203 0 -338 77q-28 15 -14 39z" />
<glyph unicode="t" horiz-adv-x="804" d="M33 758v149q0 13 9 22t21 9h103v184q0 13 9.5 22t21.5 9h209q13 0 21.5 -8.5t8.5 -22.5v-184h258q14 0 22.5 -9t8.5 -22v-149q0 -14 -9 -23.5t-22 -9.5h-258v-356q0 -67 21 -107q24 -49 94 -49q69 0 133 51q14 10 26 9t17 -13l72 -151q13 -23 -13 -41q-126 -88 -307 -88 q-162 0 -239 90q-74 94 -74 262v393h-103q-12 0 -21 10t-9 23z" />
<glyph unicode="u" horiz-adv-x="1161" d="M117 403v504q0 13 9 22t21 9h209q12 0 21.5 -9t9.5 -22v-485q0 -74 27 -127q46 -86 166 -86q119 0 168 86q26 51 26 127v485q0 13 9 22t22 9h209q12 0 21 -9t9 -22v-504q0 -172 -81 -276q-118 -147 -383 -147q-263 0 -381 147q-82 105 -82 276z" />
<glyph unicode="v" horiz-adv-x="1024" d="M8 895q-14 43 25 43h221q40 0 51 -33l209 -647h4l203 647q8 33 51 33h217q21 0 27 -15t-2 -28l-344 -870q-11 -31 -47 -31h-242q-38 0 -49 31z" />
<glyph unicode="w" horiz-adv-x="1652" d="M117 406v501q0 13 9 22t21 9h209q12 0 21.5 -9t9.5 -22v-493q0 -82 27 -138q32 -63 121 -63q100 0 137 88q20 47 20 119v487q0 13 9 22t22 9h209q12 0 21.5 -9t9.5 -22v-487q0 -72 20 -119q37 -88 139 -88q87 0 119 63q27 50 27 138v493q0 13 9 22t21 9h207q12 0 21.5 -9 t9.5 -22v-501q0 -175 -63 -275q-93 -151 -328 -151q-147 0 -238 67q-54 40 -80 80q-39 -52 -79 -82q-92 -65 -238 -65q-232 0 -330 149q-63 104 -63 277z" />
<glyph unicode="x" horiz-adv-x="1091" d="M3 15q-6 15 9 34l365 430l-344 410q-16 17 -10 33t30 16h260q14 0 24 -5t14.5 -9.5t13.5 -16.5l180 -241l184 241q21 31 53 31h250q24 0 29.5 -15t-8.5 -34l-346 -391l372 -449q15 -19 9.5 -34t-29.5 -15h-254q-31 0 -53 29l-207 262l-205 -262q-25 -29 -53 -29h-254 q-24 0 -30 15z" />
<glyph unicode="y" horiz-adv-x="1095" d="M8 923q6 15 27 15h252q40 0 51 -33l240 -633l200 633q6 18 17.5 25.5t33.5 7.5h232q38 0 24 -43l-356 -946q-72 -198 -188 -303q-144 -130 -367 -130q-23 0 -47 1q-11 0 -18 7t-7 17v207q0 25 25 25q6 0 26 -2t37 -2q91 0 154 49q53 44 94 116l-428 961q-8 13 -2 28z" />
<glyph unicode="z" horiz-adv-x="913" d="M16.5 24q2.5 9 8.5 17l442 661h-395q-13 0 -23 9.5t-10 21.5v174q0 13 9.5 22t23.5 9h794q18 0 25 -12t-4 -31l-438 -657h413q12 0 21.5 -9.5t9.5 -21.5v-176q0 -12 -9.5 -21.5t-21.5 -9.5h-819q-17 0 -23 7.5t-3.5 16.5z" />
<glyph unicode="{" horiz-adv-x="782" d="M92 555v186q0 13 9 22t22 9h10q73 0 111 53q45 62 45 213l-6 215q0 160 77 246q97 111 318 111q18 0 27.5 -9t9.5 -22v-149q0 -13 -9.5 -22t-21.5 -9q-75 0 -117 -51q-30 -46 -30 -142l4 -198q0 -175 -76 -260q-53 -61 -152 -99q96 -39 152 -98q76 -88 76 -260l-4 -201 q0 -92 30 -141q39 -51 117 -51q12 0 21.5 -9t9.5 -22v-148q0 -32 -37 -32q-222 0 -318 110q-77 86 -77 248l6 213q0 149 -45 211q-37 55 -111 55h-10q-13 0 -22 9.5t-9 21.5z" />
<glyph unicode="|" horiz-adv-x="548" d="M137 -416v1780q0 12 10 21.5t23 9.5h209q12 0 21.5 -9.5t9.5 -21.5v-1780q0 -12 -9.5 -21t-21.5 -9h-209q-13 0 -23 9t-10 21z" />
<glyph unicode="}" horiz-adv-x="782" d="M68 -133q0 13 9 22t21 9q78 0 117 51q31 51 31 141l-4 201q0 173 75 260q56 59 152 98q-99 38 -152 99q-75 84 -75 260l4 198q0 94 -31 142q-42 51 -117 51q-12 0 -21 9t-9 22v149q0 13 9 22t27 9q221 0 318 -111q78 -87 78 -246l-6 -215q0 -151 45 -213q38 -53 110 -53 h10q13 0 22 -9t9 -22v-186q0 -12 -9 -21.5t-22 -9.5h-10q-73 0 -110 -55q-45 -62 -45 -211l6 -213q0 -161 -78 -248q-96 -110 -318 -110q-36 0 -36 32v148z" />
<glyph unicode="~" horiz-adv-x="1351" d="M98 444q0 179 93.5 283t263.5 104q62 0 116 -18.5t92.5 -45.5t73 -54t72 -45.5t74.5 -18.5q123 0 123 129q0 31 34 31h183q30 0 30 -31q0 -181 -93 -284t-263 -103q-61 0 -115 18.5t-92 45.5t-72.5 54t-72.5 45.5t-76 18.5q-123 0 -123 -129q0 -32 -35 -32h-182 q-31 0 -31 32z" />
<glyph unicode="&#xa0;" />
<glyph unicode="&#xa1;" horiz-adv-x="663" d="M168 -426l74 875q2 13 10.5 21.5t21.5 8.5h119q13 0 22 -9t11 -21l74 -875q2 -12 -5.5 -21.5t-19.5 -9.5h-282q-12 0 -19.5 9.5t-5.5 21.5zM172 795q0 67 47 114t115 47q69 0 115.5 -46.5t46.5 -114.5q0 -69 -46.5 -115.5t-115.5 -46.5q-68 0 -115 46.5t-47 115.5z" />
<glyph unicode="&#xa2;" d="M186 469q0 176 101 301q128 153 342 178v154q0 12 9 21.5t21 9.5h80q13 0 22 -9.5t9 -21.5v-150q138 -14 250 -90q24 -17 12 -41l-80 -147q-6 -11 -18.5 -13t-26.5 5q-98 61 -192 61q-117 0 -189 -78q-65 -71 -65 -180q0 -120 67 -190q70 -76 189 -76q99 0 198 57 q15 9 28 6.5t18 -14.5l75 -143q12 -22 -12 -39q-99 -70 -254 -86v-146q0 -14 -9 -23.5t-22 -9.5h-80q-12 0 -21 10t-9 23v146q-202 18 -320 145q-123 129 -123 340z" />
<glyph unicode="&#xa3;" d="M115 31v192q0 12 9 21.5t21 9.5h144q86 82 86 225q0 15 -4 47h-178q-12 0 -21.5 10t-9.5 23v172q0 12 9.5 21.5t21.5 9.5h108q-43 135 -43 225q0 193 129 307q132 119 346 119q201 0 346 -84q24 -14 13 -39l-78 -162q-6 -12 -17.5 -15t-21.5 3q-110 58 -215 58 q-103 0 -166 -60q-55 -55 -55 -141q0 -80 43 -211h358q13 0 22 -9.5t9 -21.5v-172q0 -14 -9 -23.5t-22 -9.5h-297l2 -30q0 -138 -82 -242h496q12 0 21.5 -9.5t9.5 -21.5v-192q0 -12 -9.5 -21.5t-21.5 -9.5h-914q-12 0 -21 9.5t-9 21.5z" />
<glyph unicode="&#xa4;" horiz-adv-x="1435" d="M102 1259.5q0 13.5 9 22.5l120 125q9 7 22.5 7t22.5 -7l164 -166q127 84 281 84q151 0 276 -82l166 166q9 9 22.5 9t22.5 -9l121 -123q9 -9 9 -22.5t-9 -22.5l-162 -164q84 -127 84 -282q0 -154 -84 -281l164 -164q9 -9 9 -22.5t-9 -22.5l-123 -123q-8 -9 -22 -9t-23 9 l-164 166q-119 -84 -278 -84q-155 0 -285 84l-157 -164q-9 -9 -23 -9t-23 9l-122 125q-8 8 -8.5 22t8.5 23l159 162q-80 125 -80 279q0 151 82 280l-161 162q-9 9 -9 22.5zM412 795q0 -128 91 -219t218 -91q126 0 215.5 91t89.5 219q0 126 -89.5 215.5t-215.5 89.5 q-128 0 -218.5 -89.5t-90.5 -215.5z" />
<glyph unicode="&#xa5;" d="M7.5 1379.5q6.5 15.5 27.5 15.5h270q36 0 51 -35l254 -488l256 488q14 35 52 35h274q21 0 26.5 -16.5t-4.5 -26.5l-352 -586h221q12 0 21.5 -9.5t9.5 -21.5v-133q0 -12 -9.5 -21.5t-21.5 -9.5h-325v-141h325q12 0 21.5 -9t9.5 -22v-131q0 -13 -9.5 -21.5t-21.5 -8.5h-325 v-207q0 -12 -9.5 -21.5t-21.5 -9.5h-233q-12 0 -21.5 9.5t-9.5 21.5v207h-324q-12 0 -21 8.5t-9 21.5v131q0 13 9 22t21 9h324v141h-324q-12 0 -21 9.5t-9 21.5v133q0 12 9 21.5t21 9.5h221l-350 586q-9 12 -2.5 27.5z" />
<glyph unicode="&#xa6;" horiz-adv-x="548" d="M137 324q0 12 10 21t23 9h209q12 0 21.5 -9t9.5 -21v-740q0 -12 -9.5 -21t-21.5 -9h-209q-13 0 -23 9t-10 21v740zM137 625v739q0 12 10 21.5t23 9.5h209q12 0 21.5 -9.5t9.5 -21.5v-739q0 -12 -9.5 -21.5t-21.5 -9.5h-209q-13 0 -23 9.5t-10 21.5z" />
<glyph unicode="&#xa7;" horiz-adv-x="1077" d="M94 524q0 184 148 324q-66 85 -66 194q0 161 100 261q109 112 297 112q113 0 194 -28t155 -78q10 -6 13.5 -18t-1.5 -23l-72 -148q-4 -12 -16.5 -15t-22.5 3q-129 96 -233 96q-61 0 -98 -37q-33 -30 -33 -86q0 -29 12 -57t26 -48t48 -48.5t52.5 -42.5t66 -46.5 t65.5 -45.5q56 -39 94.5 -72t78.5 -79.5t60.5 -103t20.5 -120.5q0 -190 -147 -322q67 -87 67 -194q0 -153 -96 -256q-114 -117 -301 -117q-113 0 -193.5 28t-154.5 78q-26 18 -13 41l72 148q5 12 16.5 15.5t22.5 -3.5q132 -94 240 -94q55 0 88 31q34 34 34 92 q0 31 -13.5 60.5t-33 52.5t-53.5 50.5t-62.5 46.5t-72.5 48.5t-72 50.5q-65 48 -109 93t-76 112.5t-32 144.5zM377 565q0 -98 110 -184q29 -23 91.5 -64t76.5 -51q45 56 45 113t-32 101.5t-93 92.5l-153 103q-45 -52 -45 -111z" />
<glyph unicode="&#xa8;" horiz-adv-x="952" d="M84 1354q0 65 45 110t111 45q64 0 109.5 -45.5t45.5 -109.5q0 -65 -45.5 -111.5t-109.5 -46.5q-65 0 -110.5 46.5t-45.5 111.5zM559 1354q0 65 45 110t111 45q64 0 108.5 -45t44.5 -110t-44.5 -111.5t-108.5 -46.5q-65 0 -110.5 46.5t-45.5 111.5z" />
<glyph unicode="&#xa9;" horiz-adv-x="1687" d="M82 735q0 154 59.5 293.5t160.5 240.5t240.5 160.5t293.5 59.5t294 -59.5t241 -160.5t160.5 -240.5t59.5 -293.5q0 -206 -100.5 -379t-273.5 -273.5t-379 -100.5q-154 0 -294 59.5t-241 160t-161 240t-60 293.5zM231 735q0 -125 47.5 -238.5t128 -195.5t192.5 -130 t237 -48q167 0 306.5 81.5t219.5 222t80 308.5q0 167 -79.5 307.5t-218.5 223t-306 82.5t-307 -82.5t-220 -223t-80 -307.5zM475 727q0 161 116.5 269t278.5 108q126 0 211 -47q24 -10 17 -27q0 -2 -26.5 -53t-27.5 -51q-7 -10 -30 0q-75 35 -148 35q-93 0 -159 -66.5 t-66 -167.5q0 -103 64.5 -168t162.5 -65q77 0 154 34q20 10 29 -2q1 0 27 -52t26 -54q4 -16 -17 -25q-99 -45 -219 -45q-174 0 -283.5 102.5t-109.5 274.5z" />
<glyph unicode="&#xaa;" horiz-adv-x="606" d="M66 1008q0 88 92 137q64 32 223 47v12q0 56 -25 76q-21 18 -59 18q-62 0 -152 -49q-20 -12 -28 6l-29 62q-10 22 14 37q100 61 215 61q101 0 156 -47q38 -31 53 -75.5t15 -112.5v-314q0 -13 -8.5 -21.5t-22.5 -8.5h-82q-12 0 -21.5 8.5t-9.5 21.5v17h-6q-30 -24 -65 -35 q-37 -12 -82 -12q-73 0 -127 45q-51 48 -51 127zM135 537v51q0 14 9 23.5t22 9.5h276q12 0 21.5 -10t9.5 -23v-51q0 -13 -9.5 -22t-21.5 -9h-276q-14 0 -22.5 9t-8.5 22zM219 1014q0 -29 22 -46.5t58 -17.5q48 0 82 27v121q-69 -8 -109 -23q-53 -21 -53 -61z" />
<glyph unicode="&#xab;" horiz-adv-x="1339" d="M47 471q0 13 25 45l344 395q18 20 30.5 26.5t34.5 6.5h201q29 0 36.5 -19t-11.5 -42l-349 -412l349 -414q19 -25 11.5 -42t-36.5 -17h-201q-23 0 -35 6t-30 25l-344 395q-25 29 -25 47zM618 471q0 15 23 45l344 395q18 20 31 26.5t35 6.5h200q30 0 37 -19t-12 -42 l-346 -412l346 -414q19 -25 12 -42t-37 -17h-200q-23 0 -36 6t-30 25l-344 395q-23 26 -23 47z" />
<glyph unicode="&#xac;" horiz-adv-x="1202" d="M72 618v205q0 13 9 23t21 10h998q12 0 21 -10t9 -23v-456q0 -12 -9 -21.5t-21 -9.5h-197q-12 0 -21.5 9.5t-9.5 21.5v221h-770q-12 0 -21 9t-9 21z" />
<glyph unicode="&#xad;" horiz-adv-x="1067" d="M190 477v193q0 13 9.5 22.5t21.5 9.5h625q12 0 21.5 -9.5t9.5 -22.5v-193q0 -12 -9.5 -21.5t-21.5 -9.5h-625q-12 0 -21.5 9.5t-9.5 21.5z" />
<glyph unicode="&#xae;" horiz-adv-x="931" d="M88 1094q0 157 110 266.5t267 109.5t268 -110t111 -266t-110.5 -265.5t-268.5 -109.5q-157 0 -267 110t-110 265zM166 1094q0 -126 86.5 -213.5t212.5 -87.5q127 0 214 87.5t87 213.5q0 127 -87 215t-214 88t-213 -88t-86 -215zM313 934v323q0 9 8 17t17 8h147 q61 0 99.5 -31.5t38.5 -89.5q0 -79 -74 -104l76 -113q10 -19 4 -27t-21 -8h-35q-21 0 -36 23l-74 108h-68v-106q0 -11 -7 -18t-17 -7h-33q-10 0 -17.5 7.5t-7.5 17.5zM395 1110h80q66 0 66 51t-66 51h-80v-102z" />
<glyph unicode="&#xaf;" horiz-adv-x="1103" d="M199 1247v158q0 12 8.5 21.5t21.5 9.5h494q13 0 22 -9.5t9 -21.5v-158q0 -14 -9 -23.5t-22 -9.5h-494q-13 0 -21.5 9.5t-8.5 23.5z" />
<glyph unicode="&#xb0;" horiz-adv-x="757" d="M102 1214q0 116 81 196.5t196 80.5t195.5 -80.5t80.5 -196.5t-80.5 -196t-195.5 -80q-116 0 -196.5 80.5t-80.5 195.5zM215 1214q0 -69 47 -117t117 -48q69 0 117.5 48t48.5 117t-48.5 115.5t-117.5 46.5q-70 0 -117 -46.5t-47 -115.5z" />
<glyph unicode="&#xb1;" horiz-adv-x="1181" d="M88 31v192q0 12 9.5 21.5t21.5 9.5h942q13 0 23 -9.5t10 -21.5v-192q0 -12 -10 -21.5t-23 -9.5h-942q-12 0 -21.5 9.5t-9.5 21.5zM88 764v192q0 12 9.5 21.5t21.5 9.5h344v344q0 12 9 21.5t22 9.5h192q12 0 21.5 -9.5t9.5 -21.5v-344h344q13 0 23 -9.5t10 -21.5v-192 q0 -13 -9.5 -22t-23.5 -9h-344v-346q0 -12 -9.5 -21.5t-21.5 -9.5h-192q-13 0 -22 9.5t-9 21.5v346h-344q-12 0 -21.5 9t-9.5 22z" />
<glyph unicode="&#xb2;" horiz-adv-x="854" d="M172 713v41q0 75 18.5 126.5t63.5 94.5q39 38 120 80.5t109 68.5q33 30 33 74q0 40 -29 66q-25 22 -71 22q-79 0 -158 -55q-26 -17 -39 10l-29 62q-15 28 13 45q108 67 225 67q112 0 176 -67q58 -58 58 -144q0 -99 -68 -164q-40 -38 -115.5 -77.5t-101.5 -63.5 q-39 -33 -39 -82h289q12 0 21 -9.5t9 -21.5v-73q0 -12 -9 -21.5t-21 -9.5h-424q-12 0 -21.5 9.5t-9.5 21.5z" />
<glyph unicode="&#xb3;" horiz-adv-x="854" d="M189 736q-4 10 1 24l33 67q13 26 37 9q62 -43 131 -43q56 0 84.5 26t28.5 72q0 62 -55 86q-25 12 -84 12h-31q-12 0 -21.5 10t-9.5 23v57q0 14 9 22.5t22 8.5h18q55 0 84 14q49 22 49 82q0 33 -23 56.5t-65 23.5q-62 0 -129 -43q-24 -15 -35 10l-30 62q-15 30 12 43 q100 57 195 57q99 0 156 -55t57 -135q0 -119 -101 -164q127 -53 127 -184q0 -92 -65 -148.5t-181 -56.5q-113 0 -200 49q-10 5 -14 15z" />
<glyph unicode="&#xb4;" horiz-adv-x="952" d="M274.5 1184.5q-1.5 21.5 10.5 38.5l153 311q16 31 43 31h185q20 0 26 -15t-4 -32l-201 -322q-20 -33 -47 -33h-139q-25 0 -26.5 21.5z" />
<glyph unicode="&#xb5;" horiz-adv-x="1161" d="M117 -326v1233q0 13 9 22t21 9h209q12 0 21.5 -9t9.5 -22v-493q0 -74 27 -127q46 -86 166 -86q118 0 168 84q26 53 26 129v493q0 13 9 22t22 9h209q12 0 21 -9t9 -22v-504q0 -172 -81 -276q-118 -147 -383 -147q-75 0 -127 14q-37 11 -66 37v-357q0 -13 -9.5 -22.5 t-21.5 -9.5h-209q-12 0 -21 9.5t-9 22.5z" />
<glyph unicode="&#xb6;" horiz-adv-x="1499" d="M70 1053q0 198 122.5 305.5t348.5 107.5h870q12 0 21.5 -9t9.5 -21v-164q0 -12 -9.5 -21.5t-21.5 -9.5h-231v-1620q0 -12 -9.5 -21.5t-21.5 -9.5h-178q-13 0 -23 9.5t-10 21.5v1620h-225v-1620q0 -12 -9.5 -21.5t-21.5 -9.5h-178q-13 0 -22 9.5t-9 21.5v1016 q-189 10 -296 121.5t-107 294.5z" />
<glyph unicode="&#xb7;" horiz-adv-x="528" d="M96 707q0 71 50 120.5t120 49.5t120 -49.5t50 -120.5q0 -72 -49.5 -122t-120.5 -50t-120.5 50t-49.5 122z" />
<glyph unicode="&#xb8;" horiz-adv-x="972" d="M223 -326q0 10 7.5 17.5t17.5 7.5q7 0 33.5 -3t46.5 -3q135 0 135 82q0 65 -113 65q-33 0 -51 -2l16 201h138v-98q89 -9 138.5 -57t49.5 -117q0 -59 -27.5 -101.5t-73.5 -64t-95.5 -31.5t-104.5 -10q-53 0 -92 8q-25 4 -25 24v82z" />
<glyph unicode="&#xb9;" horiz-adv-x="854" d="M166 1229v57q0 33 31 45l217 76q21 8 35 8h34q13 0 21 -8.5t8 -22.5v-567h143q12 0 21.5 -9.5t9.5 -21.5v-73q0 -12 -9.5 -21.5t-21.5 -9.5h-454q-13 0 -22 9.5t-9 21.5v73q0 12 9 21.5t22 9.5h157v432l-151 -51q-22 -6 -31.5 0.5t-9.5 30.5z" />
<glyph unicode="&#xba;" horiz-adv-x="763" d="M82 1124q0 116 68 193q88 98 233 98q70 0 130.5 -26t100.5 -72q70 -76 70 -193q0 -114 -70 -190q-82 -98 -231 -98q-147 0 -233 98q-68 77 -68 190zM211 537v53q0 12 10 21.5t23 9.5h276q12 0 21.5 -9.5t9.5 -21.5v-53q0 -12 -9.5 -21.5t-21.5 -9.5h-276q-13 0 -23 9.5 t-10 21.5zM240 1124q0 -57 32 -100q37 -57 111 -57q69 0 111 55q30 45 30 102q0 55 -30 103q-42 55 -111 55q-73 0 -111 -55q-32 -46 -32 -103z" />
<glyph unicode="&#xbb;" horiz-adv-x="1339" d="M48.5 15q-7.5 17 12.5 42l349 414l-349 412q-20 23 -12 42t37 19h201q22 0 34.5 -6.5t30.5 -26.5l344 -395q25 -32 25 -45q0 -18 -25 -47l-344 -395q-18 -19 -30 -25t-35 -6h-201q-30 0 -37.5 17zM618.5 15q-6.5 17 14.5 42l346 414l-346 412q-22 23 -14.5 42t36.5 19 h201q40 0 66 -33l344 -395q24 -31 24 -45q0 -20 -24 -47l-344 -395q-15 -18 -28.5 -24.5t-37.5 -6.5h-201q-30 0 -36.5 17z" />
<glyph unicode="&#xbc;" horiz-adv-x="854" d="M82 449v71q0 14 9 22.5t22 8.5h626q14 0 23.5 -9t9.5 -22v-71q0 -13 -10 -23t-23 -10h-626q-13 0 -22 9.5t-9 23.5zM123 -221q0 33 18 55l310 430q21 27 55 27h53q12 0 21.5 -9.5t9.5 -21.5v-424h82q12 0 21 -9.5t9 -21.5v-65q0 -13 -9 -23t-21 -10h-82v-108 q0 -12 -9.5 -21.5t-21.5 -9.5h-86q-12 0 -21.5 9.5t-9.5 21.5v108h-288q-13 0 -22 9.5t-9 23.5v39zM162 1229v57q0 33 31 45l219 76q21 8 34 8h33q29 0 29 -31v-567h143q13 0 23 -9.5t10 -21.5v-73q0 -12 -10 -21.5t-23 -9.5h-454q-12 0 -21.5 9.5t-9.5 21.5v73 q0 12 9.5 21.5t21.5 9.5h157v432l-149 -51q-23 -6 -33 0.5t-10 30.5zM301 -164h141v199z" />
<glyph unicode="&#xbd;" horiz-adv-x="854" d="M82 449v71q0 14 9 22.5t22 8.5h626q14 0 23.5 -9t9.5 -22v-71q0 -13 -10 -23t-23 -10h-626q-13 0 -22 9.5t-9 23.5zM162 1229v57q0 33 31 45l219 76q21 8 34 8h33q29 0 29 -31v-567h143q13 0 23 -9.5t10 -21.5v-73q0 -12 -10 -21.5t-23 -9.5h-454q-12 0 -21.5 9.5 t-9.5 21.5v73q0 12 9.5 21.5t21.5 9.5h157v432l-149 -51q-23 -6 -33 0.5t-10 30.5zM170 -358q0 74 19.5 125.5t64.5 95.5q39 38 120 80.5t109 68.5q31 28 31 74q0 39 -27 66q-25 22 -71 22q-79 0 -158 -55q-26 -17 -39 10l-31 61q-13 29 15 46q104 67 225 67q112 0 176 -67 q58 -58 58 -144q0 -97 -70 -164q-39 -38 -115 -78t-102 -63q-37 -32 -37 -82h287q13 0 22.5 -9.5t9.5 -21.5v-73q0 -12 -9.5 -21.5t-22.5 -9.5h-422q-13 0 -23 9.5t-10 21.5v41z" />
<glyph unicode="&#xbe;" horiz-adv-x="854" d="M82 449v71q0 14 9 22.5t22 8.5h626q14 0 23.5 -9t9.5 -22v-71q0 -13 -10 -23t-23 -10h-626q-13 0 -22 9.5t-9 23.5zM123 -221q0 33 18 55l310 430q21 27 55 27h53q12 0 21.5 -9.5t9.5 -21.5v-424h82q12 0 21 -9.5t9 -21.5v-65q0 -13 -9 -23t-21 -10h-82v-108 q0 -12 -9.5 -21.5t-21.5 -9.5h-86q-12 0 -21.5 9.5t-9.5 21.5v108h-288q-13 0 -22 9.5t-9 23.5v39zM183 736q-4 10 1 24l33 67q13 26 37 9q62 -43 131 -43q56 0 84.5 26t28.5 72q0 62 -56 86q-25 12 -84 12h-30q-12 0 -21.5 10t-9.5 23v57q0 14 9 22.5t22 8.5h18q55 0 84 14 q49 22 49 82q0 33 -23 56.5t-65 23.5q-62 0 -129 -43q-24 -15 -35 10l-30 62q-15 30 12 43q100 57 194 57q99 0 156 -55t57 -135q0 -119 -100 -164q127 -53 127 -184q0 -92 -65 -148.5t-181 -56.5q-113 0 -200 49q-10 5 -14 15zM301 -164h141v199z" />
<glyph unicode="&#xbf;" horiz-adv-x="1019" d="M80 -82q0 107 49 182.5t160 151.5q91 65 120.5 113t34.5 120q1 16 12.5 24.5t24.5 8.5h144q27 0 41 -26q24 -50 24 -109q0 -89 -88 -184q-17 -18 -40.5 -39.5t-37 -33t-52.5 -43t-48 -38.5q-70 -61 -70 -127q0 -76 56 -117q47 -41 129 -41q95 0 174.5 38t177.5 114 q10 8 22.5 5t18.5 -15l78 -156q11 -19 -13 -43q-217 -182 -471 -182q-193 0 -321 112q-125 115 -125 285zM399 793q0 68 47.5 115.5t114.5 47.5q68 0 116 -48t48 -115t-48 -114.5t-116 -47.5q-67 0 -114.5 47.5t-47.5 114.5z" />
<glyph unicode="&#xc0;" horiz-adv-x="1419" d="M135 31v800q0 131 52 252.5t153 204.5q148 125 369 125q222 0 370 -125q102 -83 153.5 -204t51.5 -253v-800q0 -12 -9.5 -21.5t-21.5 -9.5h-233q-12 0 -21.5 9.5t-9.5 21.5v395h-559v-395q0 -12 -9.5 -21.5t-21.5 -9.5h-233q-12 0 -21.5 9.5t-9.5 21.5zM430 688h559v131 q0 155 -84 246q-77 74 -196 74t-193 -74q-86 -89 -86 -246v-131zM490 1967q5 15 26 15h186q28 0 43 -30l156 -316q24 -55 -18 -55h-142q-27 0 -47 33l-198 321q-11 17 -6 32z" />
<glyph unicode="&#xc1;" horiz-adv-x="1419" d="M135 31v800q0 131 52 252.5t153 204.5q148 125 369 125q222 0 370 -125q102 -83 153.5 -204t51.5 -253v-800q0 -12 -9.5 -21.5t-21.5 -9.5h-233q-12 0 -21.5 9.5t-9.5 21.5v395h-559v-395q0 -12 -9.5 -21.5t-21.5 -9.5h-233q-12 0 -21.5 9.5t-9.5 21.5zM430 688h559v131 q0 155 -84 246q-77 74 -196 74t-193 -74q-86 -89 -86 -246v-131zM524.5 1602q-1.5 21 10.5 38l153 312q15 30 43 30h184q20 0 26.5 -15t-3.5 -32l-201 -321q-20 -33 -47 -33h-139q-25 0 -26.5 21z" />
<glyph unicode="&#xc2;" horiz-adv-x="1419" d="M135 31v800q0 131 52 252.5t153 204.5q148 125 369 125q222 0 370 -125q102 -83 153.5 -204t51.5 -253v-800q0 -12 -9.5 -21.5t-21.5 -9.5h-233q-12 0 -21.5 9.5t-9.5 21.5v395h-559v-395q0 -12 -9.5 -21.5t-21.5 -9.5h-233q-12 0 -21.5 9.5t-9.5 21.5zM314 1595 q-4 14 10 31l294 334q19 22 44 22h94q16 0 23 -4.5t18 -17.5l295 -334q14 -17 9.5 -31t-24.5 -14h-170q-22 0 -32 6t-23 25l-143 162l-146 -162q-13 -19 -23 -25t-32 -6h-170q-20 0 -24 14zM430 688h559v131q0 155 -84 246q-77 74 -196 74t-193 -74q-86 -89 -86 -246v-131z " />
<glyph unicode="&#xc3;" horiz-adv-x="1419" d="M135 31v800q0 131 52 252.5t153 204.5q148 125 369 125q222 0 370 -125q102 -83 153.5 -204t51.5 -253v-800q0 -12 -9.5 -21.5t-21.5 -9.5h-233q-12 0 -21.5 9.5t-9.5 21.5v395h-559v-395q0 -12 -9.5 -21.5t-21.5 -9.5h-233q-12 0 -21.5 9.5t-9.5 21.5zM344 1688 q0 117 54 187.5t155 70.5q82 0 170 -64q74 -53 119 -53q64 0 78 76q6 30 30 30h86q18 0 27.5 -9.5t9.5 -22.5q0 -118 -53 -189.5t-154 -71.5q-86 0 -168 62q-73 55 -120 55q-66 0 -80 -73q-6 -33 -31 -33h-86q-18 0 -27.5 10t-9.5 25zM430 688h559v131q0 155 -84 246 q-77 74 -196 74t-193 -74q-86 -89 -86 -246v-131z" />
<glyph unicode="&#xc4;" horiz-adv-x="1419" d="M135 31v800q0 131 52 252.5t153 204.5q148 125 369 125q222 0 370 -125q102 -83 153.5 -204t51.5 -253v-800q0 -12 -9.5 -21.5t-21.5 -9.5h-233q-12 0 -21.5 9.5t-9.5 21.5v395h-559v-395q0 -12 -9.5 -21.5t-21.5 -9.5h-233q-12 0 -21.5 9.5t-9.5 21.5zM315 1763 q0 65 45 110.5t111 45.5q65 0 110.5 -45.5t45.5 -110.5t-46 -111t-110 -46q-66 0 -111 46t-45 111zM430 688h559v131q0 155 -84 246q-77 74 -196 74t-193 -74q-86 -89 -86 -246v-131zM791 1763q0 65 44.5 110.5t110.5 45.5q64 0 109 -45.5t45 -110.5t-45 -111t-109 -46 q-65 0 -110 46t-45 111z" />
<glyph unicode="&#xc5;" horiz-adv-x="1419" d="M135 31v800q0 131 52 252.5t153 204.5q148 125 369 125q222 0 370 -125q102 -83 153.5 -204t51.5 -253v-800q0 -12 -9.5 -21.5t-21.5 -9.5h-233q-12 0 -21.5 9.5t-9.5 21.5v395h-559v-395q0 -12 -9.5 -21.5t-21.5 -9.5h-233q-12 0 -21.5 9.5t-9.5 21.5zM430 688h559v131 q0 155 -84 246q-77 74 -196 74t-193 -74q-86 -89 -86 -246v-131zM461 1755q0 105 72.5 177.5t177.5 72.5q102 0 174.5 -72.5t72.5 -177.5q0 -101 -73 -173.5t-174 -72.5q-104 0 -177 72t-73 174zM580 1755q0 -53 38 -91t93 -38q53 0 91 37.5t38 91.5q0 56 -38 94.5t-91 38.5 q-56 0 -93.5 -38t-37.5 -95z" />
<glyph unicode="&#xc6;" horiz-adv-x="2015" d="M135 31v800q0 131 52 252.5t153 204.5q148 125 369 125q156 0 280 -65v16q0 12 9.5 21.5t21.5 9.5h887q13 0 22.5 -9.5t9.5 -21.5v-201q0 -12 -9.5 -21t-22.5 -9h-623v-302h516q12 0 21.5 -9t9.5 -21v-199q0 -13 -9.5 -23t-21.5 -10h-516v-309h623q14 0 23 -9t9 -22v-198 q0 -12 -9.5 -21.5t-22.5 -9.5h-887h-8l-6 4q-10 3 -13 12q-4 4 -4 11v4v395h-559v-395q0 -12 -9.5 -21.5t-21.5 -9.5h-233q-12 0 -21.5 9.5t-9.5 21.5zM430 688h559v131q0 155 -84 246q-77 74 -196 74t-193 -74q-86 -89 -86 -246v-131z" />
<glyph unicode="&#xc7;" horiz-adv-x="1339" d="M82 698q0 200 99 364.5t270.5 257.5t377.5 93q234 0 422 -96q28 -17 15 -43l-95 -197q-12 -27 -41 -12q-164 82 -307 82q-179 0 -305.5 -129.5t-126.5 -319.5q0 -198 124 -324t310 -126q164 0 318 82q27 12 37 -11l94 -200q12 -27 -14 -39q-176 -88 -377 -98v-41 q89 -9 138.5 -57t49.5 -117q0 -59 -27.5 -101.5t-73.5 -64t-95.5 -31.5t-104.5 -10q-53 0 -92 8q-25 4 -25 24v82q0 10 7.5 17.5t17.5 7.5q7 0 33.5 -3t46.5 -3q135 0 135 82q0 65 -113 65q-33 0 -51 -2l12 146q-304 23 -481.5 214t-177.5 500z" />
<glyph unicode="&#xc8;" horiz-adv-x="1265" d="M137 31v1333q0 12 10 21.5t23 9.5h987q13 0 23 -9.5t10 -21.5v-201q0 -12 -10 -21t-23 -9h-725v-302h619q12 0 21 -9t9 -21v-199q0 -13 -9 -23t-21 -10h-619v-309h725q14 0 23.5 -9t9.5 -22v-198q0 -12 -10 -21.5t-23 -9.5h-987q-13 0 -23 9.5t-10 21.5zM406 1967 q5 15 26 15h186q29 0 44 -30l155 -316q24 -55 -18 -55h-142q-27 0 -47 33l-198 321q-11 17 -6 32z" />
<glyph unicode="&#xc9;" horiz-adv-x="1265" d="M137 31v1333q0 12 10 21.5t23 9.5h987q13 0 23 -9.5t10 -21.5v-201q0 -12 -10 -21t-23 -9h-725v-302h619q12 0 21 -9t9 -21v-199q0 -13 -9 -23t-21 -10h-619v-309h725q14 0 23.5 -9t9.5 -22v-198q0 -12 -10 -21.5t-23 -9.5h-987q-13 0 -23 9.5t-10 21.5zM487.5 1602 q-1.5 21 10.5 38l153 312q15 30 43 30h185q20 0 26 -15t-4 -32l-201 -321q-20 -33 -47 -33h-139q-25 0 -26.5 21z" />
<glyph unicode="&#xca;" horiz-adv-x="1265" d="M137 31v1333q0 12 10 21.5t23 9.5h987q13 0 23 -9.5t10 -21.5v-201q0 -12 -10 -21t-23 -9h-725v-302h619q12 0 21 -9t9 -21v-199q0 -13 -9 -23t-21 -10h-619v-309h725q14 0 23.5 -9t9.5 -22v-198q0 -12 -10 -21.5t-23 -9.5h-987q-13 0 -23 9.5t-10 21.5zM252 1595 q-4 14 10 31l295 334q19 22 43 22h94q16 0 23 -4.5t18 -17.5l295 -334q14 -17 10 -31t-24 -14h-170q-22 0 -32 6t-23 25l-144 162l-145 -162q-13 -18 -23.5 -24.5t-32.5 -6.5h-170q-20 0 -24 14z" />
<glyph unicode="&#xcb;" horiz-adv-x="1265" d="M137 31v1333q0 12 10 21.5t23 9.5h987q13 0 23 -9.5t10 -21.5v-201q0 -12 -10 -21t-23 -9h-725v-302h619q12 0 21 -9t9 -21v-199q0 -13 -9 -23t-21 -10h-619v-309h725q14 0 23.5 -9t9.5 -22v-198q0 -12 -10 -21.5t-23 -9.5h-987q-13 0 -23 9.5t-10 21.5zM272 1763 q0 65 45 110.5t111 45.5q64 0 110 -45.5t46 -110.5t-46 -111t-110 -46q-66 0 -111 46t-45 111zM748 1763q0 65 44.5 110.5t110.5 45.5q64 0 109 -45.5t45 -110.5t-45 -111t-109 -46q-65 0 -110 46t-45 111z" />
<glyph unicode="&#xcc;" horiz-adv-x="571" d="M66 1967q5 15 26 15h187q28 0 43 -30l155 -316q24 -55 -18 -55h-142q-27 0 -47 33l-198 321q-11 17 -6 32zM137 31v1333q0 12 10 21.5t23 9.5h231q13 0 22 -9.5t9 -21.5v-1333q0 -12 -9 -21.5t-22 -9.5h-231q-13 0 -23 9.5t-10 21.5z" />
<glyph unicode="&#xcd;" horiz-adv-x="571" d="M90 1602q-2 21 10 38l154 312q15 30 43 30h184q20 0 26.5 -15t-3.5 -32l-201 -321q-20 -33 -47 -33h-139q-25 0 -27 21zM137 31v1333q0 12 10 21.5t23 9.5h231q13 0 22 -9.5t9 -21.5v-1333q0 -12 -9 -21.5t-22 -9.5h-231q-13 0 -23 9.5t-10 21.5z" />
<glyph unicode="&#xce;" horiz-adv-x="571" d="M-108 1595q-4 14 10 31l295 334q19 22 43 22h94q16 0 23 -4.5t18 -17.5l295 -334q14 -17 9.5 -31t-24.5 -14h-170q-22 0 -32 6t-23 25l-143 162l-146 -162q-13 -19 -23 -25t-32 -6h-170q-20 0 -24 14zM137 31v1333q0 12 10 21.5t23 9.5h231q13 0 22 -9.5t9 -21.5v-1333 q0 -12 -9 -21.5t-22 -9.5h-231q-13 0 -23 9.5t-10 21.5z" />
<glyph unicode="&#xcf;" horiz-adv-x="571" d="M-106 1763q0 65 44.5 110.5t110.5 45.5q65 0 110.5 -45.5t45.5 -110.5t-46 -111t-110 -46q-65 0 -110 46t-45 111zM137 31v1333q0 12 10 21.5t23 9.5h231q13 0 22 -9.5t9 -21.5v-1333q0 -12 -9 -21.5t-22 -9.5h-231q-13 0 -23 9.5t-10 21.5zM369 1763q0 65 44.5 110.5 t110.5 45.5q64 0 109 -45.5t45 -110.5t-45 -111t-109 -46q-65 0 -110 46t-45 111z" />
<glyph unicode="&#xd0;" horiz-adv-x="1542" d="M-10 602v191q0 13 9 22.5t21 9.5h140v539q0 12 9 21.5t21 9.5h525q178 0 319 -46.5t254 -166.5q170 -182 170 -484q0 -198 -76.5 -353t-234.5 -245q-179 -100 -461 -100h-496q-12 0 -21 9.5t-9 21.5v540h-140q-12 0 -21 9t-9 22zM455 248h211q170 0 280 55 q211 103 211 395q0 206 -106 318q-125 131 -379 131h-217v-322h241q12 0 21.5 -9.5t9.5 -22.5v-191q0 -13 -9.5 -22t-21.5 -9h-241v-323z" />
<glyph unicode="&#xd1;" horiz-adv-x="1521" d="M137 31v1333q0 12 10 21.5t23 9.5h205q18 0 29.5 -7t25.5 -26l670 -873v875q0 12 9 21.5t21 9.5h222q12 0 21 -9.5t9 -21.5v-1333q0 -12 -9 -21.5t-21 -9.5h-205q-20 0 -32 6t-25 25l-670 872v-872q0 -12 -9.5 -21.5t-21.5 -9.5h-219q-13 0 -23 9.5t-10 21.5zM395 1688 q0 117 54 187.5t155 70.5q82 0 170 -64q74 -53 119 -53q64 0 78 76q6 30 30 30h86q18 0 27.5 -9.5t9.5 -22.5q0 -119 -52.5 -190t-153.5 -71q-86 0 -168 62q-73 55 -121 55q-66 0 -80 -73q-6 -33 -31 -33h-86q-18 0 -27.5 10t-9.5 25z" />
<glyph unicode="&#xd2;" horiz-adv-x="1658" d="M82 694q0 159 58 294t158.5 228t237.5 145t293 52t293 -52.5t237 -145.5t158 -228t58 -293t-58 -292.5t-158 -226.5t-237 -143.5t-293 -51.5q-209 0 -378.5 87.5t-269 251.5t-99.5 375zM395 694q0 -189 123.5 -314.5t310.5 -125.5t310 126t123 314q0 189 -123 316 t-310 127t-310.5 -127.5t-123.5 -315.5zM604.5 1967q5.5 15 26.5 15h186q28 0 43 -30l156 -316q4 -8 6 -16.5t1.5 -17.5t-7 -15t-19.5 -6h-141q-27 0 -47 33l-199 321q-11 17 -5.5 32z" />
<glyph unicode="&#xd3;" horiz-adv-x="1658" d="M82 694q0 159 58 294t158.5 228t237.5 145t293 52t293 -52.5t237 -145.5t158 -228t58 -293t-58 -292.5t-158 -226.5t-237 -143.5t-293 -51.5q-209 0 -378.5 87.5t-269 251.5t-99.5 375zM395 694q0 -189 123.5 -314.5t310.5 -125.5t310 126t123 314q0 189 -123 316 t-310 127t-310.5 -127.5t-123.5 -315.5zM630.5 1602q-1.5 21 10.5 38l154 312q15 30 43 30h184q20 0 26 -15t-4 -32l-200 -321q-20 -33 -47 -33h-140q-25 0 -26.5 21z" />
<glyph unicode="&#xd4;" horiz-adv-x="1658" d="M82 694q0 159 58 294t158.5 228t237.5 145t293 52t293 -52.5t237 -145.5t158 -228t58 -293t-58 -292.5t-158 -226.5t-237 -143.5t-293 -51.5q-209 0 -378.5 87.5t-269 251.5t-99.5 375zM395 694q0 -189 123.5 -314.5t310.5 -125.5t310 126t123 314q0 189 -123 316 t-310 127t-310.5 -127.5t-123.5 -315.5zM432.5 1595q-4.5 14 9.5 31l295 334q19 22 43 22h94q16 0 23 -4.5t18 -17.5l295 -334q14 -17 10 -31t-24 -14h-170q-22 0 -32 6t-23 25l-144 162l-145 -162q-13 -19 -23 -25t-32 -6h-170q-20 0 -24.5 14z" />
<glyph unicode="&#xd5;" horiz-adv-x="1658" d="M82 694q0 159 58 294t158.5 228t237.5 145t293 52t293 -52.5t237 -145.5t158 -228t58 -293t-58 -292.5t-158 -226.5t-237 -143.5t-293 -51.5q-209 0 -378.5 87.5t-269 251.5t-99.5 375zM395 694q0 -189 123.5 -314.5t310.5 -125.5t310 126t123 314q0 189 -123 316 t-310 127t-310.5 -127.5t-123.5 -315.5zM463 1688q0 117 54 187.5t155 70.5q82 0 170 -64q74 -53 119 -53q63 0 77 76q6 30 31 30h86q18 0 27.5 -9.5t9.5 -22.5q0 -118 -53 -189.5t-154 -71.5q-86 0 -168 62q-73 55 -121 55q-66 0 -80 -73q-6 -33 -30 -33h-86 q-18 0 -27.5 10t-9.5 25z" />
<glyph unicode="&#xd6;" horiz-adv-x="1658" d="M82 694q0 159 58 294t158.5 228t237.5 145t293 52t293 -52.5t237 -145.5t158 -228t58 -293t-58 -292.5t-158 -226.5t-237 -143.5t-293 -51.5q-209 0 -378.5 87.5t-269 251.5t-99.5 375zM395 694q0 -189 123.5 -314.5t310.5 -125.5t310 126t123 314q0 189 -123 316 t-310 127t-310.5 -127.5t-123.5 -315.5zM434 1763q0 65 45 110.5t111 45.5q64 0 109.5 -45.5t45.5 -110.5t-45.5 -111t-109.5 -46q-66 0 -111 46t-45 111zM909 1763q0 65 45 110.5t111 45.5q64 0 109 -45.5t45 -110.5t-45 -111t-109 -46q-66 0 -111 46t-45 111z" />
<glyph unicode="&#xd7;" horiz-adv-x="1062" d="M42 399.5q0 13.5 9 22.5l299 301l-299 299q-9 9 -9 21.5t9 21.5l135 137q9 9 21.5 9t21.5 -9l301 -301l301 303q9 8 23 8t23 -8l135 -137q9 -9 9 -21.5t-9 -21.5l-301 -301l301 -301q9 -9 9 -22.5t-9 -22.5l-135 -137q-9 -9 -23 -9t-23 9l-301 301l-301 -299 q-9 -9 -21.5 -9t-21.5 9l-135 137q-9 7 -9 20.5z" />
<glyph unicode="&#xd8;" horiz-adv-x="1658" d="M82 694q0 159 58 294t158.5 228t237.5 145t293 52q225 0 404 -104l47 55q1 1 7.5 8t9.5 9.5t8.5 6.5t11 5.5t12.5 1.5h172q21 0 29 -16.5t-6 -30.5l-140 -160q191 -197 191 -494q0 -158 -58 -292.5t-158 -226.5t-237 -143.5t-293 -51.5q-227 0 -405 102l-45 -51 q-24 -31 -49 -31h-172q-24 0 -32 14t9 31l135 156q-188 198 -188 493zM395 694q0 -145 78 -260l565 651q-96 52 -209 52q-187 0 -310.5 -127.5t-123.5 -315.5zM616 305q94 -51 213 -51q187 0 310 126t123 314q0 147 -80 260z" />
<glyph unicode="&#xd9;" horiz-adv-x="1482" d="M135 551v813q0 12 9.5 21.5t21.5 9.5h233q12 0 21.5 -9.5t9.5 -21.5v-778q0 -158 70 -240q78 -96 239 -96q166 0 244 96q68 83 68 240v778q0 12 9.5 21.5t22.5 9.5h232q13 0 22 -9.5t9 -21.5v-813q0 -240 -127 -385q-163 -186 -480 -186q-155 0 -276.5 48t-198.5 138 q-129 147 -129 385zM518.5 1967q5.5 15 26.5 15h186q28 0 43 -30l156 -316q4 -8 6 -16.5t1.5 -17.5t-7 -15t-19.5 -6h-141q-27 0 -47 33l-199 321q-11 17 -5.5 32z" />
<glyph unicode="&#xda;" horiz-adv-x="1482" d="M135 551v813q0 12 9.5 21.5t21.5 9.5h233q12 0 21.5 -9.5t9.5 -21.5v-778q0 -158 70 -240q78 -96 239 -96q166 0 244 96q68 83 68 240v778q0 12 9.5 21.5t22.5 9.5h232q13 0 22 -9.5t9 -21.5v-813q0 -240 -127 -385q-163 -186 -480 -186q-155 0 -276.5 48t-198.5 138 q-129 147 -129 385zM544.5 1602q-1.5 21 10.5 38l154 312q15 30 43 30h184q20 0 26 -15t-4 -32l-200 -321q-20 -33 -47 -33h-140q-25 0 -26.5 21z" />
<glyph unicode="&#xdb;" horiz-adv-x="1482" d="M135 551v813q0 12 9.5 21.5t21.5 9.5h233q12 0 21.5 -9.5t9.5 -21.5v-778q0 -158 70 -240q78 -96 239 -96q166 0 244 96q68 83 68 240v778q0 12 9.5 21.5t22.5 9.5h232q13 0 22 -9.5t9 -21.5v-813q0 -240 -127 -385q-163 -186 -480 -186q-155 0 -276.5 48t-198.5 138 q-129 147 -129 385zM344.5 1595q-4.5 14 9.5 31l295 334q19 22 43 22h94q16 0 23 -4.5t18 -17.5l295 -334q14 -17 10 -31t-24 -14h-170q-22 0 -32 6t-23 25l-144 162l-145 -162q-13 -19 -23 -25t-32 -6h-170q-20 0 -24.5 14z" />
<glyph unicode="&#xdc;" horiz-adv-x="1482" d="M135 551v813q0 12 9.5 21.5t21.5 9.5h233q12 0 21.5 -9.5t9.5 -21.5v-778q0 -158 70 -240q78 -96 239 -96q166 0 244 96q68 83 68 240v778q0 12 9.5 21.5t22.5 9.5h232q13 0 22 -9.5t9 -21.5v-813q0 -240 -127 -385q-163 -186 -480 -186q-155 0 -276.5 48t-198.5 138 q-129 147 -129 385zM348 1763q0 65 45 110.5t111 45.5q64 0 109.5 -45.5t45.5 -110.5t-45.5 -111t-109.5 -46q-66 0 -111 46t-45 111zM823 1763q0 65 45 110.5t111 45.5q64 0 109 -45.5t45 -110.5t-45 -111t-109 -46q-66 0 -111 46t-45 111z" />
<glyph unicode="&#xdd;" horiz-adv-x="1351" d="M3.5 1379q5.5 16 29.5 16h268q35 0 51 -31l322 -492l323 492q19 31 54 31h268q24 0 29 -16t-9 -36l-518 -763v-549q0 -12 -9 -21.5t-21 -9.5h-234q-12 0 -21.5 9.5t-9.5 21.5v551l-514 761q-14 20 -8.5 36zM497.5 1602q-1.5 21 10.5 38l154 312q15 30 43 30h184 q20 0 26 -15t-4 -32l-200 -321q-20 -33 -47 -33h-140q-25 0 -26.5 21z" />
<glyph unicode="&#xde;" horiz-adv-x="1325" d="M137 -248v1612q0 12 10 21.5t23 9.5h231q13 0 22 -9.5t9 -21.5v-231h318q205 0 333 -105q80 -66 125 -164.5t45 -218.5q0 -123 -49 -225t-135 -166q-124 -96 -319 -96h-318v-406q0 -12 -9 -21.5t-22 -9.5h-231q-13 0 -23 9.5t-10 21.5zM432 416h273q114 0 174 47 q75 59 75 182q0 111 -65 170q-59 59 -178 59h-279v-458z" />
<glyph unicode="&#xdf;" horiz-adv-x="1196" d="M133 -119v1143q0 159 90 258q58 64 144 98.5t184 34.5q203 0 321 -88q109 -86 109 -237q0 -64 -24.5 -114t-59 -78t-69 -48.5t-59 -38.5t-24.5 -35q0 -25 30 -44.5t90.5 -46t95.5 -48.5q157 -105 157 -289q0 -164 -112 -270q-106 -98 -269 -98q-91 0 -156.5 19t-129.5 58 q-27 13 -13 41l76 154q10 26 39 10q86 -53 176 -53q63 0 98 35q37 30 37 86q0 33 -23.5 63t-53.5 49.5t-81 52t-83 56.5q-65 46 -99.5 94t-34.5 117q0 40 22.5 69t54.5 48t64 39t54.5 54t22.5 81q0 63 -39 102q-42 39 -111 39q-71 0 -113 -45q-41 -44 -41 -125v-1143 q0 -12 -9 -21.5t-21 -9.5h-209q-13 0 -22 9.5t-9 21.5z" />
<glyph unicode="&#xe0;" horiz-adv-x="995" d="M70 268q0 160 170 238q131 57 370 74v20q0 72 -28 107q-33 41 -113 41q-123 0 -256 -74q-32 -19 -45 10l-59 129q-11 25 12 41q73 46 173.5 74t207.5 28q201 0 297 -106q82 -92 82 -250v-569q0 -12 -9.5 -21.5t-21.5 -9.5h-180q-13 0 -23 9.5t-10 21.5v16h-8 q-60 -38 -117.5 -52.5t-132.5 -14.5q-133 0 -217 75q-92 76 -92 213zM281 1550q5 15 26 15h187q28 0 43 -31l155 -315q5 -12 7.5 -23t-3 -22t-22.5 -11h-142q-27 0 -47 33l-198 322q-11 17 -6 32zM328 276q0 -47 39 -71.5t100 -24.5q80 0 143 39v178q-282 -9 -282 -121z" />
<glyph unicode="&#xe1;" horiz-adv-x="995" d="M70 268q0 160 170 238q131 57 370 74v20q0 72 -28 107q-33 41 -113 41q-123 0 -256 -74q-32 -19 -45 10l-59 129q-11 25 12 41q73 46 173.5 74t207.5 28q201 0 297 -106q82 -92 82 -250v-569q0 -12 -9.5 -21.5t-21.5 -9.5h-180q-13 0 -23 9.5t-10 21.5v16h-8 q-60 -38 -117.5 -52.5t-132.5 -14.5q-133 0 -217 75q-92 76 -92 213zM297 1184.5q-2 21.5 10 38.5l154 311q15 31 43 31h184q20 0 26.5 -15t-3.5 -32l-201 -322q-20 -33 -47 -33h-139q-25 0 -27 21.5zM328 276q0 -47 39 -71.5t100 -24.5q80 0 143 39v178q-282 -9 -282 -121z " />
<glyph unicode="&#xe2;" horiz-adv-x="1007" d="M70 268q0 160 170 238q131 57 370 74v20q0 72 -28 107q-33 41 -113 41q-123 0 -256 -74q-32 -19 -45 10l-59 129q-11 25 12 41q73 46 173.5 74t207.5 28q201 0 297 -106q82 -92 82 -250v-569q0 -12 -9.5 -21.5t-21.5 -9.5h-180q-13 0 -23 9.5t-10 21.5v16h-8 q-60 -38 -117.5 -52.5t-132.5 -14.5q-133 0 -217 75q-92 76 -92 213zM103 1177q-4 14 10 31l295 334q20 23 43 23h94q11 0 19 -3.5t11 -6.5t11 -13l295 -334q14 -17 9.5 -31t-24.5 -14h-170q-22 0 -32 6t-23 25l-143 162l-146 -162q-13 -19 -23 -25t-32 -6h-170 q-20 0 -24 14zM328 276q0 -47 39 -71.5t100 -24.5q80 0 143 39v178q-282 -9 -282 -121z" />
<glyph unicode="&#xe3;" horiz-adv-x="995" d="M70 268q0 160 170 238q131 57 370 74v20q0 72 -28 107q-33 41 -113 41q-123 0 -256 -74q-32 -19 -45 10l-59 129q-11 25 12 41q73 46 173.5 74t207.5 28q201 0 297 -106q82 -92 82 -250v-569q0 -12 -9.5 -21.5t-21.5 -9.5h-180q-13 0 -23 9.5t-10 21.5v16h-8 q-60 -38 -117.5 -52.5t-132.5 -14.5q-133 0 -217 75q-92 76 -92 213zM125 1260q0 117 54 187.5t155 70.5q82 0 170 -64q74 -53 119 -53q63 0 77 76q6 30 31 30h86q18 0 27.5 -9.5t9.5 -22.5q0 -118 -53 -189.5t-154 -71.5q-86 0 -168 62q-73 55 -121 55q-65 0 -79 -74 q-6 -32 -31 -32h-86q-18 0 -27.5 10t-9.5 25zM328 276q0 -47 39 -71.5t100 -24.5q80 0 143 39v178q-282 -9 -282 -121z" />
<glyph unicode="&#xe4;" horiz-adv-x="997" d="M70 268q0 160 170 238q131 57 370 74v20q0 72 -28 107q-33 41 -113 41q-123 0 -256 -74q-32 -19 -45 10l-59 129q-11 25 12 41q73 46 173.5 74t207.5 28q201 0 297 -106q82 -92 82 -250v-569q0 -12 -9.5 -21.5t-21.5 -9.5h-180q-13 0 -23 9.5t-10 21.5v16h-8 q-60 -38 -117.5 -52.5t-132.5 -14.5q-133 0 -217 75q-92 76 -92 213zM104 1354q0 65 45 110t111 45q65 0 110.5 -45.5t45.5 -109.5q0 -65 -46 -111.5t-110 -46.5q-65 0 -110.5 46.5t-45.5 111.5zM328 276q0 -47 39 -71.5t100 -24.5q80 0 143 39v178q-282 -9 -282 -121z M580 1354q0 65 44.5 110t110.5 45q64 0 109 -45t45 -110t-45 -111.5t-109 -46.5q-65 0 -110 46.5t-45 111.5z" />
<glyph unicode="&#xe5;" horiz-adv-x="995" d="M70 268q0 160 170 238q131 57 370 74v20q0 72 -28 107q-33 41 -113 41q-123 0 -256 -74q-32 -19 -45 10l-59 129q-11 25 12 41q73 46 173.5 74t207.5 28q201 0 297 -106q82 -92 82 -250v-569q0 -12 -9.5 -21.5t-21.5 -9.5h-180q-13 0 -23 9.5t-10 21.5v16h-8 q-60 -38 -117.5 -52.5t-132.5 -14.5q-133 0 -217 75q-92 76 -92 213zM250 1364q0 105 72.5 177.5t177.5 72.5q102 0 175 -72.5t73 -177.5q0 -101 -73.5 -173.5t-174.5 -72.5q-104 0 -177 72t-73 174zM328 276q0 -47 39 -71.5t100 -24.5q80 0 143 39v178q-282 -9 -282 -121z M369 1364q0 -53 38 -91t93 -38q53 0 91 37.5t38 91.5q0 56 -38 94.5t-91 38.5q-56 0 -93.5 -38t-37.5 -95z" />
<glyph unicode="&#xe6;" horiz-adv-x="1607" d="M70 266q0 153 163 228q130 58 377 75v31q0 74 -28 109q-32 43 -111 43q-66 0 -136.5 -23t-121.5 -53q-13 -8 -27 -5.5t-18 15.5l-59 127q-5 10 -1.5 22.5t13.5 18.5q166 102 381 102q101 0 168 -28q62 -30 112 -90q51 54 119 82q83 36 189 36q245 0 362 -163 q100 -135 84 -361q-2 -14 -11 -22.5t-22 -8.5h-610q12 -88 63 -143q67 -70 181 -70q119 0 231 66q34 18 47 -8l70 -129q11 -25 -12 -41q-60 -42 -155.5 -69t-199.5 -27q-236 0 -381 145q-81 -81 -166 -113q-88 -32 -196 -32q-139 0 -225 86q-80 77 -80 200zM328 274 q0 -48 37 -75q35 -27 96 -27q59 0 106 21q45 18 88 61q-33 62 -39 145q-137 -5 -210 -34q-78 -30 -78 -91zM893 565h385q-6 75 -47 125q-51 58 -139 58q-96 0 -148 -58q-41 -47 -51 -125z" />
<glyph unicode="&#xe7;" horiz-adv-x="980" d="M76 469q0 175 102 301q71 89 182.5 136.5t243.5 47.5q175 0 307 -92q25 -18 13 -41l-80 -149q-5 -11 -18 -13t-27 5q-98 61 -195 61q-114 0 -186 -78q-66 -72 -66 -178q0 -115 68 -186q70 -76 184 -76q104 0 203 57q32 19 45 -8l76 -147q12 -21 -13 -39 q-107 -76 -264 -88v-41q89 -9 139 -57t50 -117q0 -59 -27.5 -101.5t-73.5 -64t-95.5 -31.5t-104.5 -10q-54 0 -93 8q-24 4 -24 24v82q0 11 7 18t17 7q7 0 33.5 -3t46.5 -3q136 0 136 82q0 65 -113 65q-33 0 -51 -2l12 148q-195 21 -311 143q-123 132 -123 340z" />
<glyph unicode="&#xe8;" horiz-adv-x="1075" d="M76 479q0 206 137 346q128 131 344 131q242 0 363 -163q90 -121 86 -375q0 -14 -9 -22.5t-22 -8.5h-613q15 -78 62 -125q64 -67 182 -67t228 63q34 18 47 -8l71 -133q10 -24 -14 -41q-59 -41 -155.5 -68.5t-196.5 -27.5q-236 0 -373 137q-137 134 -137 362zM318 1550 q5 15 26 15h186q28 0 43 -31l156 -315q5 -12 7.5 -23t-3 -22t-22.5 -11h-142q-27 0 -47 33l-198 322q-11 17 -6 32zM360 565h383q-3 72 -45 123q-52 55 -139 55q-98 0 -147 -55q-42 -48 -52 -123z" />
<glyph unicode="&#xe9;" horiz-adv-x="1075" d="M76 479q0 206 137 346q128 131 344 131q242 0 363 -163q90 -121 86 -375q0 -14 -9 -22.5t-22 -8.5h-613q15 -78 62 -125q64 -67 182 -67t228 63q34 18 47 -8l71 -133q10 -24 -14 -41q-59 -41 -155.5 -68.5t-196.5 -27.5q-236 0 -373 137q-137 134 -137 362zM333.5 1184.5 q-1.5 21.5 10.5 38.5l154 311q16 31 43 31h184q20 0 26.5 -15t-3.5 -32l-201 -322q-20 -33 -47 -33h-140q-25 0 -26.5 21.5zM360 565h383q-3 72 -45 123q-52 55 -139 55q-98 0 -147 -55q-42 -48 -52 -123z" />
<glyph unicode="&#xea;" horiz-adv-x="1075" d="M76 479q0 206 137 346q128 131 344 131q242 0 363 -163q90 -121 86 -375q0 -14 -9 -22.5t-22 -8.5h-613q15 -78 62 -125q64 -67 182 -67t228 63q34 18 47 -8l71 -133q10 -24 -14 -41q-59 -41 -155.5 -68.5t-196.5 -27.5q-236 0 -373 137q-137 134 -137 362zM142 1177 q-4 14 10 31l294 334q20 23 43 23h95q11 0 19 -3.5t11 -6.5t11 -13l295 -334q14 -17 9.5 -31t-24.5 -14h-170q-22 0 -32 6t-23 25l-143 162l-146 -162q-13 -19 -23 -25t-32 -6h-170q-20 0 -24 14zM360 565h383q-3 72 -45 123q-52 55 -139 55q-98 0 -147 -55 q-42 -48 -52 -123z" />
<glyph unicode="&#xeb;" horiz-adv-x="1075" d="M76 479q0 206 137 346q128 131 344 131q242 0 363 -163q90 -121 86 -375q0 -14 -9 -22.5t-22 -8.5h-613q15 -78 62 -125q64 -67 182 -67t228 63q34 18 47 -8l71 -133q10 -24 -14 -41q-59 -41 -155.5 -68.5t-196.5 -27.5q-236 0 -373 137q-137 134 -137 362zM143 1354 q0 65 45 110t111 45q65 0 110.5 -45.5t45.5 -109.5q0 -65 -46 -111.5t-110 -46.5q-65 0 -110.5 46.5t-45.5 111.5zM360 565h383q-3 72 -45 123q-52 55 -139 55q-98 0 -147 -55q-42 -48 -52 -123zM618 1354q0 65 45 110t111 45q64 0 109 -45t45 -110t-45 -111.5t-109 -46.5 q-65 0 -110.5 46.5t-45.5 111.5z" />
<glyph unicode="&#xec;" horiz-adv-x="536" d="M51.5 1550q5.5 15 26.5 15h186q28 0 43 -31l156 -315q4 -8 6 -16.5t1.5 -18t-7 -15.5t-19.5 -6h-141q-27 0 -47 33l-199 322q-11 17 -5.5 32zM133 31v876q0 13 8.5 22t22.5 9h209q12 0 21 -9t9 -22v-876q0 -12 -9 -21.5t-21 -9.5h-209q-13 0 -22 9.5t-9 21.5z" />
<glyph unicode="&#xed;" horiz-adv-x="536" d="M67.5 1184.5q-1.5 21.5 10.5 38.5l153 311q15 31 43 31h185q20 0 26 -15t-4 -32l-200 -322q-20 -33 -48 -33h-139q-25 0 -26.5 21.5zM133 31v876q0 13 8.5 22t22.5 9h209q12 0 21 -9t9 -22v-876q0 -12 -9 -21.5t-21 -9.5h-209q-13 0 -22 9.5t-9 21.5z" />
<glyph unicode="&#xee;" horiz-adv-x="536" d="M-126.5 1177q-4.5 14 9.5 31l295 334q20 23 43 23h94q11 0 19 -3.5t11 -6.5t11 -13l295 -334q14 -17 10 -31t-24 -14h-170q-22 0 -32 6t-23 25l-144 162l-145 -162q-13 -19 -23 -25t-32 -6h-170q-20 0 -24.5 14zM133 31v876q0 13 8.5 22t22.5 9h209q12 0 21 -9t9 -22 v-876q0 -12 -9 -21.5t-21 -9.5h-209q-13 0 -22 9.5t-9 21.5z" />
<glyph unicode="&#xef;" horiz-adv-x="536" d="M-125 1354q0 65 45 110t111 45q65 0 110 -45.5t45 -109.5q0 -65 -45.5 -111.5t-109.5 -46.5q-65 0 -110.5 46.5t-45.5 111.5zM133 31v876q0 13 8.5 22t22.5 9h209q12 0 21 -9t9 -22v-876q0 -12 -9 -21.5t-21 -9.5h-209q-13 0 -22 9.5t-9 21.5zM350 1354q0 65 45 110 t111 45q64 0 108.5 -45t44.5 -110t-44.5 -111.5t-108.5 -46.5q-65 0 -110.5 46.5t-45.5 111.5z" />
<glyph unicode="&#xf0;" horiz-adv-x="1060" d="M76 428q0 181 117 295q62 60 143 91.5t166 31.5q65 0 125 -31q-54 114 -166 221l-142 -108q-9 -6 -22.5 -5.5t-20.5 9.5l-73 96q-8 9 -6 22.5t12 20.5l110 84q-19 18 -60.5 52.5t-49.5 41.5q-26 23 -2 43l131 127q21 21 51 2q85 -63 135 -110l150 114q9 6 22.5 5.5 t20.5 -9.5l71 -96q18 -25 -4 -43l-122 -94q155 -163 238 -347.5t83 -379.5q0 -118 -36.5 -211.5t-99.5 -151.5t-144.5 -88t-176.5 -30q-181 0 -299 100q-151 126 -151 348zM326 428q0 -98 52 -159.5t148 -61.5q91 0 147 63t56 191q0 56 -14 135q-72 39 -168 39 q-85 0 -153 -56t-68 -151z" />
<glyph unicode="&#xf1;" horiz-adv-x="1179" d="M133 31v876q0 13 8.5 22t22.5 9h201q12 0 21 -9t9 -22v-63h6q109 112 281 112q174 0 274 -92q109 -97 109 -295v-538q0 -12 -9 -21.5t-22 -9.5h-211q-12 0 -21 9.5t-9 21.5v469q0 125 -48 178q-41 47 -122 47q-76 0 -127.5 -44.5t-72 -106t-20.5 -134.5v-409 q0 -12 -9 -21.5t-21 -9.5h-209q-13 0 -22 9.5t-9 21.5zM215 1260q0 117 54 187.5t155 70.5q82 0 170 -64q74 -53 119 -53q64 0 78 76q6 30 30 30h86q18 0 27.5 -9.5t9.5 -22.5q0 -118 -53 -189.5t-154 -71.5q-86 0 -168 62q-73 55 -120 55q-66 0 -80 -74q-6 -32 -31 -32h-86 q-18 0 -27.5 10t-9.5 25z" />
<glyph unicode="&#xf2;" horiz-adv-x="1167" d="M76 467q0 223 144 356t362 133t363 -133t145 -356q0 -149 -68.5 -261t-183 -169t-256.5 -57q-218 0 -362 132t-144 355zM342 467q0 -115 65.5 -187.5t174.5 -72.5t174 72.5t65 187.5t-65 187.5t-174 72.5t-174.5 -72.5t-65.5 -187.5zM363 1550q5 15 26 15h186 q27 0 43 -31l156 -315q5 -12 7.5 -23t-3 -22t-22.5 -11h-142q-27 0 -47 33l-198 322q-11 17 -6 32z" />
<glyph unicode="&#xf3;" horiz-adv-x="1167" d="M76 467q0 223 144 356t362 133t363 -133t145 -356q0 -149 -68.5 -261t-183 -169t-256.5 -57q-218 0 -362 132t-144 355zM342 467q0 -115 65.5 -187.5t174.5 -72.5t174 72.5t65 187.5t-65 187.5t-174 72.5t-174.5 -72.5t-65.5 -187.5zM379 1184.5q-2 21.5 10 38.5l154 311 q15 31 43 31h184q20 0 26.5 -15t-3.5 -32l-201 -322q-20 -33 -47 -33h-139q-25 0 -27 21.5z" />
<glyph unicode="&#xf4;" horiz-adv-x="1167" d="M76 467q0 223 144 356t362 133t363 -133t145 -356q0 -149 -68.5 -261t-183 -169t-256.5 -57q-218 0 -362 132t-144 355zM187 1177q-4 14 10 31l295 334q20 23 43 23h94q11 0 19 -3.5t11 -6.5t11 -13l295 -334q14 -17 9.5 -31t-24.5 -14h-170q-22 0 -32 6t-23 25l-143 162 l-146 -162q-13 -19 -23 -25t-32 -6h-170q-20 0 -24 14zM342 467q0 -115 65.5 -187.5t174.5 -72.5t174 72.5t65 187.5t-65 187.5t-174 72.5t-174.5 -72.5t-65.5 -187.5z" />
<glyph unicode="&#xf5;" horiz-adv-x="1167" d="M76 467q0 223 144 356t362 133t363 -133t145 -356q0 -149 -68.5 -261t-183 -169t-256.5 -57q-218 0 -362 132t-144 355zM207 1260q0 117 54 187.5t155 70.5q82 0 170 -64q74 -53 119 -53q63 0 77 76q6 30 31 30h86q18 0 27.5 -9.5t9.5 -22.5q0 -118 -53 -189.5 t-154 -71.5q-86 0 -168 62q-73 55 -121 55q-66 0 -80 -74q-3 -17 -10 -24.5t-20 -7.5h-86q-18 0 -27.5 10t-9.5 25zM342 467q0 -115 65.5 -187.5t174.5 -72.5t174 72.5t65 187.5t-65 187.5t-174 72.5t-174.5 -72.5t-65.5 -187.5z" />
<glyph unicode="&#xf6;" horiz-adv-x="1167" d="M76 467q0 223 144 356t362 133t363 -133t145 -356q0 -149 -68.5 -261t-183 -169t-256.5 -57q-218 0 -362 132t-144 355zM188 1354q0 65 45 110t111 45q65 0 110.5 -45.5t45.5 -109.5q0 -65 -46 -111.5t-110 -46.5q-65 0 -110.5 46.5t-45.5 111.5zM342 467 q0 -115 65.5 -187.5t174.5 -72.5t174 72.5t65 187.5t-65 187.5t-174 72.5t-174.5 -72.5t-65.5 -187.5zM664 1354q0 65 44.5 110t110.5 45q64 0 109 -45t45 -110t-45 -111.5t-109 -46.5q-65 0 -110 46.5t-45 111.5z" />
<glyph unicode="&#xf7;" horiz-adv-x="1249" d="M88 627v192q0 12 9 21.5t22 9.5h1009q13 0 23 -9.5t10 -21.5v-192q0 -13 -9.5 -23t-23.5 -10h-1009q-13 0 -22 9.5t-9 23.5zM461 266q0 69 48 116.5t116 47.5t114.5 -47.5t46.5 -116.5q0 -68 -47 -115t-114 -47q-68 0 -116 47.5t-48 114.5zM461 1178q0 67 48 114t116 47 q66 0 113.5 -47t47.5 -114t-47.5 -114.5t-113.5 -47.5q-68 0 -116 47.5t-48 114.5z" />
<glyph unicode="&#xf8;" horiz-adv-x="1173" d="M78 467q0 223 144 356t362 133q153 0 276 -69l19 20q27 31 51 31h92q22 0 28.5 -14t-10.5 -31l-75 -88q127 -137 127 -338q0 -149 -68.5 -261t-183 -169t-256.5 -57q-155 0 -273 65l-12 -14q-11 -13 -15.5 -17t-13.5 -9t-20 -5h-92q-25 0 -31.5 11.5t10.5 33.5l70 80 q-129 132 -129 342zM344 467q0 -75 33 -143l323 374q-56 29 -116 29q-109 0 -174.5 -72.5t-65.5 -187.5zM471 231q49 -24 113 -24q109 0 174 72.5t65 187.5q0 72 -30 137z" />
<glyph unicode="&#xf9;" horiz-adv-x="1161" d="M117 403v504q0 13 9 22t21 9h209q12 0 21.5 -9t9.5 -22v-485q0 -74 27 -127q46 -86 166 -86q119 0 168 86q26 51 26 127v485q0 13 9 22t22 9h209q12 0 21 -9t9 -22v-504q0 -172 -81 -276q-118 -147 -383 -147q-263 0 -381 147q-82 105 -82 276zM361 1550q5 15 26 15h186 q27 0 43 -31l156 -315q5 -12 7.5 -23t-3 -22t-22.5 -11h-142q-27 0 -47 33l-198 322q-11 17 -6 32z" />
<glyph unicode="&#xfa;" horiz-adv-x="1161" d="M117 403v504q0 13 9 22t21 9h209q12 0 21.5 -9t9.5 -22v-485q0 -74 27 -127q46 -86 166 -86q119 0 168 86q26 51 26 127v485q0 13 9 22t22 9h209q12 0 21 -9t9 -22v-504q0 -172 -81 -276q-118 -147 -383 -147q-263 0 -381 147q-82 105 -82 276zM376.5 1184.5 q-1.5 21.5 10.5 38.5l154 311q15 31 43 31h184q20 0 26.5 -15t-3.5 -32l-201 -322q-20 -33 -47 -33h-140q-25 0 -26.5 21.5z" />
<glyph unicode="&#xfb;" horiz-adv-x="1161" d="M117 403v504q0 13 9 22t21 9h209q12 0 21.5 -9t9.5 -22v-485q0 -74 27 -127q46 -86 166 -86q119 0 168 86q26 51 26 127v485q0 13 9 22t22 9h209q12 0 21 -9t9 -22v-504q0 -172 -81 -276q-118 -147 -383 -147q-263 0 -381 147q-82 105 -82 276zM185 1177q-4 14 10 31 l294 334q20 23 43 23h95q11 0 19 -3.5t11 -6.5t11 -13l295 -334q14 -17 9.5 -31t-24.5 -14h-170q-22 0 -32 6t-23 25l-143 162l-146 -162q-13 -19 -23 -25t-32 -6h-170q-20 0 -24 14z" />
<glyph unicode="&#xfc;" horiz-adv-x="1161" d="M117 403v504q0 13 9 22t21 9h209q12 0 21.5 -9t9.5 -22v-485q0 -74 27 -127q46 -86 166 -86q119 0 168 86q26 51 26 127v485q0 13 9 22t22 9h209q12 0 21 -9t9 -22v-504q0 -172 -81 -276q-118 -147 -383 -147q-263 0 -381 147q-82 105 -82 276zM186 1354q0 65 45 110 t111 45q65 0 110.5 -45.5t45.5 -109.5q0 -65 -46 -111.5t-110 -46.5q-65 0 -110.5 46.5t-45.5 111.5zM662 1354q0 65 44.5 110t110.5 45q64 0 109 -45t45 -110t-45 -111.5t-109 -46.5q-65 0 -110 46.5t-45 111.5z" />
<glyph unicode="&#xfd;" horiz-adv-x="1095" d="M8 923q6 15 27 15h252q40 0 51 -33l240 -633l200 633q6 18 17.5 25.5t33.5 7.5h232q38 0 24 -43l-356 -946q-72 -198 -188 -303q-159 -144 -414 -129q-11 0 -18 7t-7 17v207q0 25 25 25q6 0 26 -2t37 -2q91 0 154 49q53 44 94 116l-428 961q-8 13 -2 28zM344 1184.5 q-2 21.5 10 38.5l154 311q16 31 43 31h184q20 0 26.5 -15t-3.5 -32l-201 -322q-20 -33 -47 -33h-139q-25 0 -27 21.5z" />
<glyph unicode="&#xfe;" horiz-adv-x="1124" d="M133 -449v1813q0 12 9 21.5t22 9.5h209q12 0 21 -9.5t9 -21.5v-414q40 6 91 6q274 0 421 -147q132 -129 132 -342q0 -207 -111 -334q-68 -78 -171 -115.5t-218 -37.5q-84 0 -144 16v-445q0 -13 -9 -22.5t-21 -9.5h-209q-13 0 -22 9t-9 23zM403 219q50 -18 115 -18 q120 0 187 59q73 67 73 207q0 117 -65 192q-70 76 -193 76q-70 0 -117 -8v-508z" />
<glyph unicode="&#xff;" horiz-adv-x="1095" d="M8 923q6 15 27 15h252q40 0 51 -33l240 -633l200 633q6 18 17.5 25.5t33.5 7.5h232q38 0 24 -43l-356 -946q-72 -198 -188 -303q-159 -144 -414 -129q-11 0 -18 7t-7 17v207q0 25 25 25q6 0 26 -2t37 -2q91 0 154 49q53 44 94 116l-428 961q-8 13 -2 28zM154 1354 q0 65 44.5 110t110.5 45q65 0 110.5 -45.5t45.5 -109.5q0 -65 -46 -111.5t-110 -46.5q-65 0 -110 46.5t-45 111.5zM629 1354q0 65 44.5 110t110.5 45q64 0 109 -45t45 -110t-45 -111.5t-109 -46.5q-65 0 -110 46.5t-45 111.5z" />
<glyph unicode="&#x152;" horiz-adv-x="2396" d="M82 694q0 159 58 294t158.5 228t237.5 145t293 52q249 0 439 -127v78q0 12 9.5 21.5t22.5 9.5h988q13 0 22.5 -9.5t9.5 -21.5v-201q0 -12 -9.5 -21t-22.5 -9h-725v-297v-5h618q12 0 21.5 -9t9.5 -21v-199q0 -13 -9.5 -23t-21.5 -10h-616l-2 -16v-293h725q14 0 23 -9 t9 -22v-198q0 -12 -9.5 -21.5t-22.5 -9.5h-988q-13 0 -22.5 9.5t-9.5 21.5v73q-191 -124 -439 -124q-209 0 -378.5 87.5t-269 251.5t-99.5 375zM395 694q0 -189 123.5 -314.5t310.5 -125.5t310 126t123 314q0 189 -123 316t-310 127t-310.5 -127.5t-123.5 -315.5z" />
<glyph unicode="&#x153;" horiz-adv-x="1820" d="M76 467q0 223 144 356t362 133q226 0 368 -139l8 8q128 131 345 131q241 0 362 -163q90 -121 86 -375q0 -14 -8.5 -22.5t-22.5 -8.5h-612q15 -79 61 -125q64 -67 183 -67q117 0 227 63q34 18 47 -8l72 -133q10 -23 -15 -41q-59 -41 -155.5 -68.5t-196.5 -27.5 q-236 0 -373 137q-4 0 -4 4q-141 -141 -372 -141q-218 0 -362 132t-144 355zM342 467q0 -115 65.5 -187.5t174.5 -72.5q106 0 171 69t68 181v10q0 115 -65 187.5t-174 72.5t-174.5 -72.5t-65.5 -187.5zM1106 565h383q-3 72 -45 123q-52 55 -139 55q-99 0 -148 -55 q-41 -47 -51 -123z" />
<glyph unicode="&#x178;" horiz-adv-x="1351" d="M3.5 1379q5.5 16 29.5 16h268q35 0 51 -31l322 -492l323 492q19 31 54 31h268q24 0 29 -16t-9 -36l-518 -763v-549q0 -12 -9 -21.5t-21 -9.5h-234q-12 0 -21.5 9.5t-9.5 21.5v551l-514 761q-14 20 -8.5 36zM283 1763q0 65 44.5 110.5t110.5 45.5q64 0 110 -45.5 t46 -110.5t-46 -111t-110 -46q-65 0 -110 46t-45 111zM758 1763q0 65 44.5 110.5t110.5 45.5q64 0 109 -45.5t45 -110.5t-45 -111t-109 -46q-65 0 -110 46t-45 111z" />
<glyph unicode="&#x2c6;" horiz-adv-x="952" d="M82 1177q-4 14 10 31l295 334q20 23 43 23h94q11 0 19 -3.5t11 -6.5t11 -13l295 -334q14 -17 10 -31t-24 -14h-170q-22 0 -32 6t-23 25l-144 162l-145 -162q-13 -18 -23.5 -24.5t-32.5 -6.5h-170q-20 0 -24 14z" />
<glyph unicode="&#x2dc;" horiz-adv-x="952" d="M111 1260q0 117 53.5 187.5t154.5 70.5q82 0 170 -64q74 -53 119 -53q64 0 78 76q6 30 31 30h86q18 0 27.5 -9.5t9.5 -22.5q0 -118 -53 -189.5t-154 -71.5q-86 0 -168 62q-73 55 -121 55q-66 0 -80 -74q-6 -32 -31 -32h-86q-18 0 -27 10t-9 25z" />
<glyph unicode="&#x2000;" horiz-adv-x="1002" />
<glyph unicode="&#x2001;" horiz-adv-x="2005" />
<glyph unicode="&#x2002;" horiz-adv-x="1002" />
<glyph unicode="&#x2003;" horiz-adv-x="2005" />
<glyph unicode="&#x2004;" horiz-adv-x="668" />
<glyph unicode="&#x2005;" horiz-adv-x="501" />
<glyph unicode="&#x2006;" horiz-adv-x="334" />
<glyph unicode="&#x2007;" horiz-adv-x="334" />
<glyph unicode="&#x2008;" horiz-adv-x="250" />
<glyph unicode="&#x2009;" horiz-adv-x="401" />
<glyph unicode="&#x200a;" horiz-adv-x="111" />
<glyph unicode="&#x2010;" horiz-adv-x="1067" d="M190 477v193q0 13 9.5 22.5t21.5 9.5h625q12 0 21.5 -9.5t9.5 -22.5v-193q0 -12 -9.5 -21.5t-21.5 -9.5h-625q-12 0 -21.5 9.5t-9.5 21.5z" />
<glyph unicode="&#x2011;" horiz-adv-x="1067" d="M190 477v193q0 13 9.5 22.5t21.5 9.5h625q12 0 21.5 -9.5t9.5 -22.5v-193q0 -12 -9.5 -21.5t-21.5 -9.5h-625q-12 0 -21.5 9.5t-9.5 21.5z" />
<glyph unicode="&#x2012;" horiz-adv-x="1067" d="M190 477v193q0 13 9.5 22.5t21.5 9.5h625q12 0 21.5 -9.5t9.5 -22.5v-193q0 -12 -9.5 -21.5t-21.5 -9.5h-625q-12 0 -21.5 9.5t-9.5 21.5z" />
<glyph unicode="&#x2013;" horiz-adv-x="1474" d="M190 414v202q0 12 9.5 21.5t21.5 9.5h1032q12 0 21.5 -9.5t9.5 -21.5v-202q0 -12 -9.5 -21.5t-21.5 -9.5h-1032q-12 0 -21.5 9.5t-9.5 21.5z" />
<glyph unicode="&#x2014;" horiz-adv-x="2600" d="M190 414v202q0 12 9.5 21.5t21.5 9.5h2159q12 0 21 -9.5t9 -21.5v-202q0 -12 -9 -21.5t-21 -9.5h-2159q-12 0 -21.5 9.5t-9.5 21.5z" />
<glyph unicode="&#x2018;" horiz-adv-x="573" d="M104 1061q-4 115 80.5 220t202.5 138q32 10 43 -12l29 -43q17 -25 -8 -41q-35 -24 -50.5 -35t-37 -39.5t-21.5 -56.5q0 -22 13 -38.5t32 -29t37.5 -27t31.5 -42t13 -66.5q0 -69 -46.5 -112t-121.5 -43q-96 0 -145.5 60.5t-51.5 166.5z" />
<glyph unicode="&#x2019;" horiz-adv-x="573" d="M104 1260q0 69 46 112t122 43q94 0 144 -60.5t53 -166.5q1 -117 -84 -222.5t-201 -138.5q-32 -6 -45 13l-26 43q-17 25 8 43q26 18 36.5 25.5t32 26.5t30.5 38t9 41t-13 38.5t-31.5 29t-36.5 27t-31 42t-13 66.5z" />
<glyph unicode="&#x201a;" horiz-adv-x="557" d="M96 137q0 69 46 112.5t122 43.5q94 0 144 -60.5t53 -166.5q1 -117 -84 -222.5t-201 -136.5q-32 -8 -45 10l-27 43q-17 25 9 43q24 16 36.5 25.5t32.5 27.5t29.5 37.5t9.5 40.5q0 22 -13 38.5t-31.5 29t-36.5 27t-31 42t-13 66.5z" />
<glyph unicode="&#x201c;" horiz-adv-x="1032" d="M104 1061q-3 115 82.5 220t202.5 138q30 9 43 -12l29 -43q16 -24 -8 -41q-35 -24 -50.5 -35t-37 -39.5t-21.5 -56.5q0 -22 13 -38.5t31 -29t36.5 -27t31.5 -42t13 -66.5q0 -69 -46.5 -112t-121.5 -43q-95 0 -144.5 60.5t-52.5 166.5zM565 1061q-4 115 80.5 220t202.5 138 q32 10 43 -12l29 -43q17 -25 -9 -41q-26 -18 -36.5 -25.5t-32 -26.5t-30.5 -38t-9 -41t13 -38.5t31.5 -29t37.5 -27t32 -42t13 -66.5q0 -69 -46.5 -112t-121.5 -43q-96 0 -145.5 60.5t-51.5 166.5z" />
<glyph unicode="&#x201d;" horiz-adv-x="1032" d="M104 1260q0 69 46 112t122 43q94 0 144 -60.5t53 -166.5q3 -116 -83 -222t-202 -139q-32 -6 -45 13l-26 43q-17 25 8 43q26 18 36.5 25.5t32 26.5t30.5 38t9 41t-13 38.5t-31.5 29t-36.5 27t-31 42t-13 66.5zM563 1260q0 69 46.5 112t121.5 43q96 0 145.5 -60.5 t51.5 -166.5q3 -116 -82 -222t-201 -139q-32 -6 -45 13l-27 43q-18 26 9 43l16 11q15 11 18.5 13.5t17 13.5t18 16t14.5 16t13.5 19t7 19.5t3.5 22.5q0 22 -13 38.5t-32 29t-37.5 27t-31.5 42t-13 66.5z" />
<glyph unicode="&#x201e;" horiz-adv-x="1015" d="M96 137q0 69 46 112.5t122 43.5q94 0 144 -60.5t53 -166.5q1 -117 -84 -222.5t-201 -136.5q-32 -8 -45 10l-27 43q-17 25 9 43q24 16 36.5 25.5t32.5 27.5t29.5 37.5t9.5 40.5q0 22 -13 38.5t-31.5 29t-36.5 27t-31 42t-13 66.5zM555 137q0 69 46.5 112.5t121.5 43.5 q96 0 145.5 -60.5t51.5 -166.5q3 -117 -82 -222.5t-201 -136.5q-32 -8 -45 10l-27 43q-18 27 8 43q1 1 12.5 9t15 10.5t14 10.5t15 12l13.5 12t13 13.5t10 14.5t9 16t5 15.5t2 17.5q0 22 -13 38.5t-32 29t-37.5 27t-31.5 42t-13 66.5z" />
<glyph unicode="&#x2022;" horiz-adv-x="1044" d="M109 698q0 170 121.5 292t291.5 122t292 -122t122 -292t-122 -291.5t-292 -121.5t-291.5 121.5t-121.5 291.5z" />
<glyph unicode="&#x2026;" horiz-adv-x="1886" d="M96 143q0 69 47 115.5t115 46.5t115 -46.5t47 -115.5q0 -67 -47 -114t-115 -47t-115 47t-47 114zM780 143q0 68 48 115t116 47t115 -46.5t47 -115.5q0 -67 -47 -114t-115 -47t-116 47t-48 114zM1466 143q0 69 47 115.5t115 46.5t116 -47t48 -115q0 -67 -48 -114t-116 -47 t-115 47t-47 114z" />
<glyph unicode="&#x202f;" horiz-adv-x="401" />
<glyph unicode="&#x2039;" horiz-adv-x="770" d="M47 471q0 13 25 45l344 395q18 20 30.5 26.5t34.5 6.5h201q29 0 36.5 -19t-11.5 -42l-349 -412l349 -414q19 -25 11.5 -42t-36.5 -17h-201q-23 0 -35 6t-30 25l-344 395q-25 29 -25 47z" />
<glyph unicode="&#x203a;" horiz-adv-x="772" d="M50 15q-7 17 13 42l349 414l-349 412q-20 23 -13 42t38 19h201q22 0 34.5 -6.5t30.5 -26.5l344 -395q3 -4 11 -14.5t11 -17t3 -13.5q0 -14 -25 -47l-344 -395q-18 -19 -30 -25t-35 -6h-201q-31 0 -38 17z" />
<glyph unicode="&#x205f;" horiz-adv-x="501" />
<glyph unicode="&#x20ac;" d="M-35 510v88q0 13 9.5 22t23.5 9h94q-4 46 -4 69q0 22 4 62h-94q-13 0 -23 9.5t-10 21.5v88q0 12 10 21t23 9h123q58 188 211 322q98 87 224.5 135.5t262.5 48.5q232 0 416 -98q10 -4 14 -17.5t-2 -23.5l-92 -199q-12 -24 -39 -12q-157 84 -303 84q-125 0 -233 -80 q-84 -60 -136 -160h562q13 0 22.5 -9t9.5 -21v-88q0 -12 -9.5 -21.5t-22.5 -9.5h-613q-2 -20 -2 -62q0 -46 2 -69h506q14 0 23.5 -9t9.5 -22v-88q0 -12 -10 -21.5t-23 -9.5h-453q40 -91 121 -153q107 -78 248 -78q166 0 313 84q27 11 39 -13l90 -198q6 -11 2.5 -23 t-14.5 -18q-189 -100 -426 -100q-260 0 -446 129q-194 130 -256 370h-119q-13 0 -23 9.5t-10 21.5z" />
<glyph unicode="&#x2122;" horiz-adv-x="1687" d="M66 1339v91q0 12 9.5 21t22.5 9h566q12 0 21 -9t9 -21v-91q0 -12 -9 -21t-21 -9h-201v-551q0 -12 -9 -21.5t-22 -9.5h-102q-12 0 -21.5 9.5t-9.5 21.5v551h-201q-13 0 -22.5 9t-9.5 21zM784 756v674q0 12 9.5 21t21.5 9h90q20 0 32 -7t24 -26l198 -335l197 335 q10 20 22 26.5t33 6.5h90q13 0 23 -9t10 -21v-674q0 -12 -10 -21.5t-23 -9.5h-98q-12 0 -21.5 9.5t-9.5 21.5v407l-147 -250q-18 -30 -47 -30h-41q-32 0 -50 30l-143 250v-407q0 -12 -9.5 -21.5t-21.5 -9.5h-98q-12 0 -21.5 9.5t-9.5 21.5z" />
<glyph unicode="&#x25fc;" horiz-adv-x="942" d="M0 0v942h942v-942h-942z" />
</font>
</defs>
</svg>
